<?xml version="1.0" encoding="iso-8859-1"?>
<!-- Generator: Adobe Illustrator 24.3.0, SVG Export Plug-In . SVG Version: 6.00 Build 0)  -->
<svg version="1.1" xmlns="http://www.w3.org/2000/svg" xmlns:xlink="http://www.w3.org/1999/xlink" x="0px" y="0px"
	 viewBox="0 0 64 64" style="enable-background:new 0 0 64 64;" xml:space="preserve">
<g id="axe">
	<path style="fill:#231F20;" d="M63.375,25.67c-0.064-0.015-5.5-1.459-16.346-10.851l2.254-2.254c0.319-0.319,0.319-0.837,0-1.156
		l-3.931-3.931c-0.319-0.319-0.837-0.319-1.156,0L41.71,9.964c-0.477-0.457-0.961-0.925-1.454-1.408
		c-1.043-1.023-2.73-1.011-3.763,0.022l-7.441,7.441c-1.033,1.033-1.044,2.721-0.022,3.763c0.483,0.493,0.952,0.977,1.408,1.454
		L0.24,51.434c-0.319,0.319-0.319,0.837,0,1.156l3.931,3.931c0.16,0.16,0.369,0.24,0.578,0.24s0.418-0.08,0.578-0.24l29.967-29.967
		c9.392,10.845,10.836,16.281,10.85,16.342c0.052,0.219,0.192,0.406,0.386,0.518c0.125,0.073,0.267,0.109,0.409,0.109
		c0.078,0,0.157-0.011,0.234-0.034c14.534-4.333,16.794-16.765,16.815-16.89C64.06,26.18,63.791,25.773,63.375,25.67z M44.774,9.213
		l2.775,2.775l-1.751,1.751c-0.93-0.826-1.896-1.708-2.9-2.65L44.774,9.213z M30.209,17.175l7.441-7.441
		c0.402-0.402,1.059-0.406,1.461-0.011C49.785,20.188,56.799,24.484,60.32,26.193c-1.156,3.434-4.541,10.145-13.706,13.544
		c-1.743-3.555-6.057-10.534-16.417-21.1C29.802,18.233,29.807,17.577,30.209,17.175z M4.749,54.787l-2.775-2.775l29.589-29.589
		c0.942,1.004,1.824,1.97,2.65,2.9L4.749,54.787z M59.664,32.616c-2.792,4.282-6.892,7.33-12.197,9.07
		c-0.116-0.314-0.28-0.718-0.502-1.208c9.362-3.497,12.875-10.354,14.1-13.938c0.469,0.209,0.853,0.362,1.151,0.472
		C61.932,28.069,61.221,30.227,59.664,32.616z"/>
</g>
<g id="Layer_1">
</g>
</svg>
