<?xml version="1.0" encoding="iso-8859-1"?>
<!-- Generator: Adobe Illustrator 24.3.0, SVG Export Plug-In . SVG Version: 6.00 Build 0)  -->
<svg version="1.1" xmlns="http://www.w3.org/2000/svg" xmlns:xlink="http://www.w3.org/1999/xlink" x="0px" y="0px"
	 viewBox="0 0 64 64" style="enable-background:new 0 0 64 64;" xml:space="preserve">
<g id="bear">
	<path style="fill:#231F20;" d="M63.389,26.835l-5.474-3.895l-0.574-1.812c-0.057-0.179-0.179-0.331-0.343-0.423
		c-0.02-0.012-2.049-1.161-3.231-2.21c-0.061-0.087-0.124-0.415-0.162-0.611c-0.117-0.606-0.336-1.733-1.453-1.764
		c-0.059,0.003-0.124,0.005-0.185,0.019c-0.992,0.226-1.559,1.401-1.843,2.241l-4.904-1.643c-0.088-0.03-0.183-0.045-0.273-0.038
		c-3.489,0.175-8.556,0.367-9.738,0.297c-0.003-0.001-0.007-0.004-0.009-0.005c-15.138-8.838-24.677-2.784-29.015,1.611
		C1.03,23.823-1.085,31,0.533,33.69c3.282,5.457,3.085,7.781,2.848,8.528c-0.507,1.596,2.351,6.708,3.603,8.831
		c0.133,0.226,0.377,0.365,0.639,0.365h7.838c0.675,0,1.275-0.3,1.693-0.768h5.849c0.41,0,0.742-0.332,0.742-0.742v-0.643
		c0-1.257-1.023-2.279-2.279-2.279h-1.461c-0.273-0.205-0.837-0.703-0.848-1.33c-0.013-0.736,0.71-1.585,2.09-2.455l-0.027-0.042
		c1.573-0.225,3.405-0.621,5.478-1.276l-0.449,7.186c-0.092,0.622,0.091,1.252,0.502,1.728c0.411,0.476,1.007,0.749,1.635,0.749
		h6.195c0.733,0,1.38-0.354,1.797-0.894h5.766c0.41,0,0.742-0.332,0.742-0.742c0-1.164-0.909-2.922-2.279-2.922h-1.461
		c-0.273-0.205-0.837-0.703-0.848-1.33c-0.013-0.736,0.71-1.585,2.091-2.455c4.378-2.762,4.182-8.064,3.999-9.735l2.698-1.596
		l13.401-0.59c0.153-0.007,0.3-0.061,0.421-0.154l2.527-1.953c0.368-0.285,0.574-0.715,0.564-1.179
		C63.99,27.524,63.767,27.103,63.389,26.835z M19.402,48.367c0.113,0.066,0.242,0.101,0.374,0.101h1.69
		c0.405,0,0.739,0.304,0.788,0.695h-4.517c0-0.009,0.003-0.018,0.003-0.027c0-1.257-1.022-2.279-2.279-2.279h-1.462
		c-0.273-0.205-0.837-0.703-0.848-1.33c-0.012-0.691,0.632-1.482,1.851-2.296c0.448,0.08,1.334,0.199,2.637,0.199
		c0.314,0,0.657-0.009,1.017-0.026c-0.664,0.737-0.999,1.497-0.986,2.273C17.701,47.355,19.332,48.326,19.402,48.367z
		 M60.186,29.803l-13.351,0.588c-0.122,0.005-0.24,0.041-0.345,0.103l-6.191,3.662l0.756,1.277l1.901-1.124
		c0.074,1.867-0.204,5.642-3.359,7.633c-1.869,1.179-2.806,2.436-2.783,3.736c0.029,1.677,1.66,2.648,1.73,2.689
		c0.113,0.066,0.242,0.101,0.374,0.101h1.69c0.159,0,0.426,0.31,0.606,0.695h-4.355c-0.052-1.211-1.054-2.18-2.277-2.18h-1.463
		c-0.277-0.205-0.839-0.7-0.846-1.336c-0.009-0.734,0.714-1.581,2.091-2.45c5.059-3.191,4.963-12.309,4.956-12.696l-1.485,0.025
		c0.001,0.086,0.096,8.665-4.264,11.415c-1.87,1.179-2.806,2.436-2.783,3.737c0.029,1.677,1.66,2.647,1.729,2.687
		c0.113,0.067,0.242,0.101,0.374,0.101h1.69c0.438,0,0.795,0.357,0.795,0.795s-0.356,0.795-0.795,0.795h-6.195
		c-0.199,0-0.381-0.083-0.511-0.234c-0.13-0.151-0.186-0.343-0.15-0.602l0.523-8.336c0.004-0.065,0-0.13-0.013-0.194l-1.691-8.298
		l-1.455,0.296l1.558,7.649c-4.679,1.532-8.126,1.675-10.002,1.573c3.635-3.818,3.56-11.188,3.554-11.534L18.714,30.4
		c0.001,0.086,0.096,8.665-4.264,11.415c-1.869,1.179-2.806,2.436-2.783,3.738c0.029,1.676,1.66,2.647,1.729,2.687
		c0.113,0.066,0.242,0.101,0.374,0.101h1.691c0.438,0,0.794,0.357,0.794,0.795s-0.356,0.795-0.794,0.795H8.05
		c-1.735-2.996-3.412-6.532-3.253-7.262c0.648-2.043-0.386-5.412-2.991-9.743c-1.143-1.899,0.676-8.458,5.434-13.279
		c4.009-4.062,12.823-9.63,26.932-1.533c0.09,0.127,0.22,0.224,0.372,0.275c0.729,0.239,6.723-0.017,10.337-0.198l5.512,1.847
		c0.202,0.067,0.42,0.045,0.604-0.059c0.184-0.104,0.314-0.283,0.358-0.489c0.145-0.677,0.448-1.38,0.709-1.711
		c0.033,0.128,0.062,0.279,0.083,0.39c0.095,0.493,0.204,1.052,0.613,1.417c1.066,0.95,2.639,1.907,3.253,2.268l0.562,1.774
		c0.049,0.154,0.146,0.287,0.277,0.381l5.675,3.989L60.186,29.803z"/>
</g>
<g id="Layer_1">
</g>
</svg>
