<?xml version="1.0" encoding="iso-8859-1"?>
<!-- Generator: Adobe Illustrator 24.0.3, SVG Export Plug-In . SVG Version: 6.00 Build 0)  -->
<svg version="1.1" xmlns="http://www.w3.org/2000/svg" xmlns:xlink="http://www.w3.org/1999/xlink" x="0px" y="0px"
	 viewBox="0 0 64 64" style="enable-background:new 0 0 64 64;" xml:space="preserve">
<g id="camper-van-01">
	<path style="fill:#231F20;" d="M35.141,21.634H21.275c-1.348,0-2.513,1.005-2.709,2.339l-0.764,5.179
		c-0.117,0.788,0.115,1.585,0.636,2.189c0.521,0.603,1.276,0.949,2.073,0.949h14.63c1.51,0,2.739-1.228,2.739-2.739v-5.178
		C37.88,22.862,36.652,21.634,35.141,21.634z M19.568,30.366c-0.237-0.275-0.342-0.638-0.289-0.996c0,0,0,0,0-0.001l0.764-5.178
		c0.09-0.607,0.62-1.065,1.233-1.065h5.805v7.672h-6.569C20.149,30.798,19.805,30.64,19.568,30.366z M36.388,29.551
		c0,0.687-0.559,1.247-1.247,1.247h-6.569v-7.672h6.569c0.687,0,1.247,0.56,1.247,1.247V29.551z M53.29,11.973H21.834
		c-4.893,0-9.16,3.311-10.384,8.091L7.998,37.515c-0.443,1.727-0.07,3.525,1.023,4.934c0.206,0.266,0.438,0.503,0.681,0.724H0.746
		C0.334,43.173,0,43.506,0,43.919v5.054h1.492v-4.308h12.055h8.598c0.375,4.121,3.847,7.362,8.064,7.362s7.689-3.241,8.064-7.362h20
		c3.159,0,5.728-2.57,5.728-5.728V22.683C64,16.778,59.195,11.973,53.29,11.973z M30.209,50.535c-3.645,0-6.609-2.965-6.609-6.609
		c0-3.652,2.965-6.622,6.609-6.622c3.644,0,6.609,2.971,6.609,6.622C36.818,47.57,33.853,50.535,30.209,50.535z M44.917,43.105
		V26.374c0-2.691,2.189-4.88,4.88-4.88s4.88,2.189,4.88,4.88v16.731H44.917z M62.508,38.936c0,2.336-1.9,4.236-4.236,4.236h-2.104
		V26.374c0-3.513-2.858-6.372-6.372-6.372s-6.372,2.858-6.372,6.372v16.798h-5.153c-0.381-4.123-3.85-7.362-8.063-7.362
		s-7.683,3.239-8.063,7.362h-8.598c-1.318,0-2.538-0.597-3.347-1.639c-0.808-1.042-1.084-2.372-0.748-3.689l3.452-17.451
		c1.046-4.08,4.717-6.929,8.929-6.929H53.29c5.083,0,9.218,4.135,9.218,9.218V38.936z M30.209,40.181
		c-2.06,0-3.735,1.678-3.735,3.741c0,2.059,1.675,3.735,3.735,3.735s3.735-1.676,3.735-3.735
		C33.944,41.859,32.268,40.181,30.209,40.181z M30.209,46.164c-1.237,0-2.243-1.006-2.243-2.243c0-1.24,1.006-2.249,2.243-2.249
		c1.237,0,2.243,1.008,2.243,2.249C32.452,45.158,31.446,46.164,30.209,46.164z M47.217,31.544h1.492v4.017h-1.492V31.544z"/>
</g>
<g id="Layer_1">
</g>
</svg>
