<?xml version="1.0" encoding="iso-8859-1"?>
<!-- Generator: Adobe Illustrator 24.3.0, SVG Export Plug-In . SVG Version: 6.00 Build 0)  -->
<svg version="1.1" xmlns="http://www.w3.org/2000/svg" xmlns:xlink="http://www.w3.org/1999/xlink" x="0px" y="0px"
	 viewBox="0 0 64 64" style="enable-background:new 0 0 64 64;" xml:space="preserve">
<g id="camp">
	<path style="fill:#231F20;" d="M60.683,54.713L33.834,16.095l4.287-6.166l-1.5-1.044l-2.965,4.265V7.46h-1.827v5.751l-3.007-4.325
		l-1.5,1.044l4.287,6.166L4.76,54.713H0v1.827h64v-1.827H60.683z M32.743,31.643l2.647,23.071h-5.294L32.743,31.643z M28.386,53.591
		l-7.014-6.431l9.909-18.796L28.386,53.591z M34.204,28.364l9.909,18.796l-7.014,6.431L34.204,28.364z M45.867,48.031
		c0.306-0.281,0.384-0.732,0.191-1.1L33.656,23.405V19.04l24.801,35.673H38.578L45.867,48.031z M31.829,18.98v4.426L19.428,46.931
		c-0.194,0.367-0.115,0.819,0.191,1.1l7.288,6.682H6.986L31.829,18.98z"/>
</g>
<g id="Layer_1">
</g>
</svg>
