<?xml version="1.0" encoding="iso-8859-1"?>
<!-- Generator: Adobe Illustrator 24.3.0, SVG Export Plug-In . SVG Version: 6.00 Build 0)  -->
<svg version="1.1" xmlns="http://www.w3.org/2000/svg" xmlns:xlink="http://www.w3.org/1999/xlink" x="0px" y="0px"
	 viewBox="0 0 64 64" style="enable-background:new 0 0 64 64;" xml:space="preserve">
<g id="carabiner">
	<path style="fill:#231F20;" d="M57.624,6.364c-8.484-8.485-22.287-8.485-30.771,0c-0.181,0.18-0.348,0.377-0.498,0.584
		L4.294,37.457C-1.523,43.592-1.4,53.413,4.586,59.401C7.653,62.467,11.68,64,15.708,64c3.57,0,7.136-1.21,10.037-3.618l0.531,0.538
		c0.268,0.272,0.623,0.41,0.981,0.41c0.281,0,0.564-0.086,0.806-0.261L53.72,42.514c0.61-0.441,0.752-1.29,0.321-1.905l-0.376-0.537
		l3.378-2.443c0.208-0.151,0.404-0.317,0.58-0.496c4.104-4.104,6.364-9.567,6.364-15.385C63.988,15.93,61.728,10.466,57.624,6.364z
		 M27.407,58.144l-5.545-5.619l24.561-17.996l4.585,6.549L27.407,58.144z M47.872,31.797c-0.212-0.304-0.539-0.508-0.904-0.569
		c-0.364-0.058-0.74,0.03-1.038,0.247l-26.983,19.77c-0.323,0.237-0.527,0.602-0.559,1c-0.032,0.399,0.111,0.792,0.392,1.077
		l0.121,0.123c-0.952,0.59-2.044,0.92-3.194,0.92c-1.629,0-3.158-0.633-4.306-1.782c-2.374-2.375-2.374-6.238,0-8.613
		c0.181-0.18,0.348-0.377,0.498-0.584l22.023-30.456c4.729-4.463,12.279-4.361,16.887,0.246c4.608,4.608,4.708,12.157,0.245,16.885
		l-2.917,2.11L47.872,31.797z M55.671,35.191c-0.077,0.077-0.16,0.147-0.245,0.208l-3.341,2.416l-2.369-3.384l3.054-2.209
		c0.067-0.048,0.128-0.102,0.185-0.161c5.58-5.796,5.491-15.14-0.199-20.829c-5.69-5.691-15.035-5.782-20.83-0.2
		c-0.059,0.058-0.113,0.12-0.161,0.186L9.667,41.775c-0.064,0.089-0.135,0.172-0.212,0.25c-3.448,3.448-3.448,9.059,0,12.507
		c1.668,1.669,3.889,2.589,6.253,2.589c1.884,0,3.672-0.593,5.167-1.675l2.928,2.968c-5.09,4.071-12.555,3.754-17.27-0.96
		c-4.957-4.958-5.041-13.104-0.186-18.16c0.044-0.046,0.085-0.094,0.123-0.147L28.589,8.561c0.064-0.089,0.135-0.172,0.212-0.25
		c7.411-7.409,19.466-7.409,26.876,0c3.583,3.584,5.556,8.355,5.556,13.438C61.234,26.83,59.26,31.602,55.671,35.191z"/>
</g>
<g id="Layer_1">
</g>
</svg>
