<?xml version="1.0" encoding="iso-8859-1"?>
<!-- Generator: Adobe Illustrator 24.3.0, SVG Export Plug-In . SVG Version: 6.00 Build 0)  -->
<svg version="1.1" xmlns="http://www.w3.org/2000/svg" xmlns:xlink="http://www.w3.org/1999/xlink" x="0px" y="0px"
	 viewBox="0 0 64 64" style="enable-background:new 0 0 64 64;" xml:space="preserve">
<g id="deer">
	<path style="fill:#231F20;" d="M22.64,35.207c-0.212-0.024-0.427,0.037-0.593,0.174c-0.166,0.137-0.267,0.336-0.281,0.55
		c-0.027,0.415-0.117,2.538,0.849,3.592c0.439,0.479,1.045,0.664,1.687,0.664c1.108,0,2.324-0.551,2.975-1.093
		c0.295-0.246,0.368-0.672,0.169-1.002C25.976,35.64,22.776,35.223,22.64,35.207z M23.767,38.466
		c-0.249-0.272-0.381-0.893-0.43-1.503c0.68,0.207,1.615,0.603,2.306,1.324C24.905,38.637,24.031,38.754,23.767,38.466z
		 M63.895,24.332c-0.207-0.521-0.648-0.857-1.24-0.946c-3.006-0.454-10.738,1.256-13.326,2.669
		c-1.878,1.024-6.257,2.405-7.739,2.859c-0.622-0.755-1.575-1.816-2.511-2.483c0.552-0.574,1.14-1.375,1.706-2.288
		c0.601,0.343,1.404,0.492,2.33,0.492c3.267,0,7.991-1.797,10.172-2.976c2.174-1.175,2.446-4.152,2.309-7.451l5.485-11.621
		l-1.413-0.667l-4.279,9.066c-0.14-1.902-0.252-3.684-0.061-5.037l-1.547-0.218c-0.228,1.617-0.079,3.641,0.081,5.785
		c0.268,3.631,0.574,7.746-1.319,8.769c-4.32,2.336-9.684,3.334-10.989,2.519c0.676-1.265,1.269-2.626,1.649-3.851
		c0.306-0.988,0.484-1.756,0.642-2.435c0.48-2.065,0.722-3.101,3.873-6.812l-1.191-1.011c-3.395,4-3.7,5.306-4.202,7.47
		c-0.152,0.652-0.324,1.392-0.613,2.326c-1.144,3.696-3.502,6.833-4.212,7.295c-0.118-0.032-0.302-0.091-0.458-0.141
		c-0.946-0.304-2.708-0.871-5.042-0.871s-4.096,0.566-5.042,0.871c-0.156,0.05-0.339,0.109-0.458,0.141
		c-0.71-0.463-3.068-3.599-4.212-7.295c-0.289-0.934-0.461-1.674-0.613-2.326c-0.503-2.164-0.807-3.47-4.202-7.47l-1.191,1.011
		c3.151,3.711,3.392,4.747,3.873,6.812c0.158,0.678,0.336,1.447,0.642,2.435c0.415,1.341,1.084,2.847,1.841,4.209
		c-1.116,0.856-5.761-0.418-10.309-2.877c-1.345-0.727-1.223-2.458-0.868-5.71c0.313-2.861,0.701-6.422-0.327-10.348L9.62,4.623
		c0.625,2.384,0.679,4.659,0.561,6.716l-4.994-9.45l-1.38,0.73l6.122,11.583c-0.007,0.067-0.015,0.138-0.022,0.204
		c-0.351,3.216-0.654,5.993,1.678,7.254c0.79,0.427,6.277,3.321,9.853,3.321c0.784,0,1.465-0.153,1.996-0.488
		c0.482,0.745,0.975,1.393,1.442,1.889c-1.004,0.676-1.942,1.797-2.491,2.524c-1.507-0.462-5.846-1.833-7.713-2.851
		c-2.589-1.412-10.321-3.12-13.326-2.669c-0.592,0.089-1.033,0.424-1.24,0.946c-0.407,1.022,0.033,4.172,7.554,13.791
		c2.949,3.771,8.348,2.297,9.936,1.756c0.837,0.673,2.974,2.374,4.193,3.197c-0.677,3.242-1.383,15.097-1.599,18.947l1.559,0.088
		c0.341-6.074,0.815-12.69,1.213-16.328c3.66,9.583,6.452,10.428,7.272,10.44c1.073,0.016,1.828,0.022,2.361,0.022
		c0.764,0,1.072-0.012,1.209-0.023c2.742-0.161,5.667-6.524,7.23-10.495c0.401,3.629,0.878,10.281,1.22,16.385l1.559-0.088
		c-0.216-3.85-0.922-15.705-1.599-18.947c1.218-0.823,3.355-2.524,4.193-3.197c1.587,0.541,6.988,2.014,9.936-1.756
		C63.862,28.505,64.302,25.354,63.895,24.332z M33.666,54.666c-0.044,0.005-0.519,0.039-3.412-0.005
		c-0.32-0.005-0.695-0.243-1.106-0.662c0.065-0.052,0.125-0.11,0.172-0.182c0.076-0.117,0.125-0.142,0.124-0.142
		c0.121-0.023,0.578,0.304,0.866,0.687l1.252-0.934c-0.166-0.222-1.033-1.315-2.116-1.315c-0.017,0-0.034,0-0.051,0.001
		c-0.217,0.007-0.488,0.06-0.762,0.226v-1.674c1.055-1.758,2.576-3.587,3.366-3.787c0.79,0.2,2.311,2.029,3.366,3.787v1.674
		c-0.274-0.166-0.545-0.219-0.762-0.226c-1.12-0.024-2,1.089-2.168,1.314l1.254,0.932c0.256-0.345,0.747-0.696,0.861-0.686
		c0.001,0,0.05,0.023,0.128,0.143c0.036,0.055,0.078,0.105,0.125,0.148C34.384,54.394,33.998,54.646,33.666,54.666z M55.11,37.161
		c-2.681,3.428-8.5,1.133-8.558,1.109c-0.262-0.105-0.564-0.062-0.785,0.117c-1.043,0.846-3.945,3.152-4.839,3.655
		c-0.169,0.095-0.284,0.253-0.342,0.432l-0.013-0.005c-1.019,2.965-2.353,6.062-3.645,8.395v-0.414c0-0.138-0.037-0.274-0.106-0.393
		c-0.628-1.078-2.802-4.552-4.771-4.747l-0.001-0.015c-0.017,0.001-0.034,0.006-0.05,0.007c-0.017-0.001-0.034-0.007-0.05-0.007
		l-0.001,0.015c-1.968,0.195-4.143,3.669-4.771,4.747c-0.069,0.119-0.106,0.255-0.106,0.393v0.499
		c-1.285-2.338-2.622-5.468-3.643-8.478l-0.004,0.001c-0.06-0.176-0.179-0.333-0.353-0.431c-0.893-0.503-3.796-2.809-4.839-3.655
		c-0.22-0.179-0.522-0.222-0.785-0.117c-0.059,0.023-5.878,2.318-8.558-1.109c-5.064-6.476-7.681-11.247-7.323-12.186
		c15.153,2.807,15.369,10.401,15.369,10.478l1.562,0.011c0.003-0.28-0.06-5.378-7.501-9.131c1.227,0.358,2.279,0.739,2.928,1.092
		c2.412,1.315,8.294,3.063,8.543,3.137c0.323,0.096,0.668-0.026,0.861-0.3c0.96-1.369,2.465-2.894,3.091-2.895v-0.004
		c0.258,0.004,0.54-0.08,1.017-0.232c0.926-0.298,2.475-0.796,4.564-0.796s3.638,0.498,4.564,0.796
		c0.462,0.148,0.739,0.237,0.994,0.237c0.006,0,0.012-0.001,0.018-0.001c0.462,0.042,1.949,1.437,3.121,2.929
		c0.198,0.252,0.531,0.358,0.836,0.267c0.249-0.074,6.131-1.822,8.543-3.137c0.527-0.287,1.324-0.593,2.26-0.89
		c-7.05,3.731-7.104,8.654-7.102,8.929l1.562-0.012c0-0.019,0.03-1.932,1.909-4.156c1.776-2.1,5.594-4.911,13.704-6.369
		l-0.004-0.023c0.012,0.002,0.026,0.002,0.038,0.003C62.869,25.776,60.243,30.596,55.11,37.161z M41.952,35.38
		c-0.166-0.136-0.379-0.197-0.593-0.174c-0.136,0.016-3.336,0.433-4.806,2.884c-0.198,0.33-0.126,0.755,0.169,1.002
		c0.651,0.543,1.867,1.093,2.975,1.093c0.642,0,1.249-0.185,1.687-0.663c0.966-1.054,0.876-3.177,0.849-3.592
		C42.219,35.716,42.118,35.517,41.952,35.38z M40.233,38.466c-0.262,0.286-1.139,0.17-1.875-0.178
		c0.69-0.722,1.626-1.117,2.306-1.324C40.615,37.573,40.483,38.195,40.233,38.466z"/>
</g>
<g id="Layer_1">
</g>
</svg>
