<?xml version="1.0" encoding="iso-8859-1"?>
<!-- Generator: Adobe Illustrator 23.0.4, SVG Export Plug-In . SVG Version: 6.00 Build 0)  -->
<svg version="1.1" xmlns="http://www.w3.org/2000/svg" xmlns:xlink="http://www.w3.org/1999/xlink" x="0px" y="0px"
	 viewBox="0 0 64 64" style="enable-background:new 0 0 64 64;" xml:space="preserve">
<g id="digital-banking">
	<path style="fill:#404041;" d="M52.106,0H11.891c-2.398,0-4.35,1.952-4.35,4.352v55.3c0,2.397,1.951,4.348,4.35,4.348h40.216
		c2.4,0,4.353-1.95,4.353-4.348v-55.3C56.459,1.952,54.506,0,52.106,0z M54.332,59.652c0,1.224-0.999,2.221-2.226,2.221H11.891
		c-1.226,0-2.223-0.996-2.223-2.221v-55.3c0-1.227,0.997-2.226,2.223-2.226h40.216c1.228,0,2.226,0.999,2.226,2.226V59.652z
		 M11.187,53.982H53.03V6.127H11.187V53.982z M13.314,8.254h37.589v43.601H13.314V8.254z M33.715,5.253h-4.898V3.126h4.898V5.253z
		 M32.109,54.857c-1.762,0-3.196,1.434-3.196,3.196c0,1.762,1.434,3.196,3.196,3.196c1.762,0,3.196-1.434,3.196-3.196
		C35.305,56.291,33.871,54.857,32.109,54.857z M32.109,59.122c-0.589,0-1.069-0.48-1.069-1.069c0-0.589,0.479-1.069,1.069-1.069
		c0.589,0,1.069,0.479,1.069,1.069C33.178,58.642,32.698,59.122,32.109,59.122z M32.109,20.676c-5.579,0-10.118,4.539-10.118,10.118
		c0,5.579,4.539,10.118,10.118,10.118c5.579,0,10.118-4.539,10.118-10.118C42.227,25.215,37.688,20.676,32.109,20.676z
		 M32.109,38.786c-4.406,0-7.991-3.584-7.991-7.991s3.584-7.991,7.991-7.991s7.991,3.585,7.991,7.991S36.515,38.786,32.109,38.786z
		 M31.68,27.805c-0.194,0.201-0.292,0.478-0.292,0.832c0,0.328,0.095,0.592,0.285,0.79c0.19,0.199,0.543,0.402,1.059,0.609
		c0.516,0.207,0.94,0.403,1.273,0.586c0.333,0.183,0.613,0.391,0.842,0.622c0.229,0.231,0.404,0.494,0.525,0.79
		c0.121,0.296,0.181,0.64,0.181,1.033c0,0.734-0.229,1.33-0.687,1.788c-0.458,0.458-1.088,0.728-1.891,0.81v1.289h-1.03v-1.283
		c-0.885-0.095-1.571-0.409-2.057-0.942c-0.486-0.533-0.729-1.243-0.729-2.128h1.872c0,0.514,0.122,0.908,0.366,1.182
		s0.595,0.411,1.053,0.411c0.38,0,0.68-0.1,0.9-0.301c0.22-0.201,0.33-0.472,0.33-0.813c0-0.354-0.098-0.636-0.295-0.845
		c-0.196-0.209-0.53-0.403-1.001-0.58c-0.471-0.177-0.877-0.353-1.218-0.528c-0.341-0.175-0.634-0.376-0.878-0.602
		c-0.244-0.227-0.434-0.493-0.57-0.8c-0.136-0.307-0.204-0.672-0.204-1.095c0-0.73,0.233-1.328,0.7-1.794
		c0.466-0.466,1.086-0.738,1.859-0.816v-1.386h1.036v1.406c0.764,0.108,1.362,0.426,1.794,0.955
		c0.432,0.529,0.648,1.215,0.648,2.057h-1.872c0-0.518-0.107-0.906-0.321-1.163c-0.214-0.257-0.5-0.385-0.858-0.385
		C32.149,27.504,31.875,27.605,31.68,27.805z M33.083,19.247h-2.127v-8.434h2.127V19.247z M36.571,16.632h-2.127v-3.203h2.127
		V16.632z M36.571,19.247h-2.127v-1.701h2.127V19.247z M29.596,16.632h-2.127v-3.203h2.127V16.632z M29.596,19.247h-2.127v-1.701
		h2.127V19.247z M23.054,43.697h18.109v2.127H23.054V43.697z"/>
</g>
<g id="Layer_1">
</g>
</svg>
