<?xml version="1.0" encoding="iso-8859-1"?>
<!-- Generator: Adobe Illustrator 24.0.3, SVG Export Plug-In . SVG Version: 6.00 Build 0)  -->
<svg version="1.1" xmlns="http://www.w3.org/2000/svg" xmlns:xlink="http://www.w3.org/1999/xlink" x="0px" y="0px"
	 viewBox="0 0 64 64" style="enable-background:new 0 0 64 64;" xml:space="preserve">
<g id="female-avatar">
	<path style="fill:#231F20;" d="M49.864,56.471v-1.1h4.113c0.196,0,0.382-0.082,0.514-0.226s0.198-0.337,0.181-0.532l-1.387-15.926
		c-0.321-3.682-3.223-6.614-6.901-6.972l-0.457-0.045V16.69c0-5.82-4.735-10.556-10.556-10.556S24.813,10.87,24.813,16.69v15.03
		c-3.661,0.374-6.545,3.297-6.865,6.967l-1.387,15.926c-0.017,0.195,0.048,0.388,0.181,0.532s0.319,0.226,0.514,0.226h4.369v1.1
		h-6.027V45.372c0-0.386-0.312-0.698-0.698-0.698H4.919c-0.385,0-0.698,0.312-0.698,0.698v1.566H3.346
		c-1.539,0-2.791,1.252-2.791,2.791v3.083c0,1.539,1.252,2.791,2.791,2.791h0.875v0.869H0v1.395h4.919H14.9h7.422h26.844H64v-1.395
		H49.864z M51.894,38.808l1.321,15.167h-3.352V41.567c0-1.539-1.252-2.791-2.791-2.791h-6.127l3.77-2.827
		c0.168-0.125,0.27-0.32,0.278-0.529c0.009-0.209-0.077-0.412-0.234-0.551l-2.419-2.147l3.907,0.381
		C49.257,33.396,51.632,35.795,51.894,38.808z M29.57,18.776c0.715-0.303,2.072-0.983,3.064-2.105
		c0.481-0.544,0.784-1.087,0.973-1.575c0.796,1.005,1.965,2.316,3.073,2.945c1.381,0.784,3.403,0.939,4.484,0.961
		c-0.196,5.725-2.77,10.435-5.794,10.435C32.306,29.438,29.705,24.603,29.57,18.776z M30.767,32.923l3.196,5.853h-1.351
		l-4.575-3.431L30.767,32.923z M35.553,38.776l-3.855-7.06l0.484-2.15c0.957,0.805,2.034,1.267,3.188,1.267
		c1.32,0,2.544-0.597,3.597-1.635l0.567,2.518l-3.855,7.061H35.553z M40.465,32.923l2.73,2.422l-4.575,3.431h-1.351L40.465,32.923z
		 M35.37,7.529c5.051,0,9.161,4.11,9.161,9.161v14.844l-3.688-0.36l-0.711-3.158l-0.199,0.045c1.618-2.279,2.638-5.773,2.638-9.76
		c0-0.19-0.078-0.373-0.215-0.504c-0.138-0.132-0.326-0.206-0.513-0.193c-0.028,0-2.902,0.116-4.474-0.777
		c-1.605-0.91-3.559-3.801-3.578-3.83c-0.178-0.265-0.513-0.373-0.814-0.263c-0.3,0.108-0.489,0.41-0.459,0.728
		c0.004,0.045,0.096,1.125-0.929,2.284c-1.123,1.271-2.925,1.887-2.943,1.893c-0.284,0.095-0.477,0.362-0.477,0.662
		c0,4.161,1.115,7.778,2.858,10.044l-0.637,2.829l-4.181,0.408V16.69C26.209,11.639,30.319,7.529,35.37,7.529z M18.017,53.975
		l1.321-15.167c0.262-3.013,2.637-5.412,5.646-5.705l3.906-0.381l-2.419,2.147c-0.157,0.139-0.243,0.341-0.234,0.551
		c0.009,0.209,0.111,0.404,0.278,0.529l3.77,2.827h-5.871c-1.539,0-2.791,1.252-2.791,2.791v12.408H18.017z M3.346,54.207
		c-0.77,0-1.395-0.626-1.395-1.395v-3.083c0-0.769,0.626-1.395,1.395-1.395h0.875v5.874H3.346z M5.616,56.471V46.07h8.586v10.401
		H5.616z M23.02,56.471V41.567c0-0.769,0.626-1.395,1.395-1.395h7.964h2.76h0.953h2.76h8.22c0.77,0,1.395,0.626,1.395,1.395v14.904
		H23.02z M9.418,40.221c-0.366-0.503-0.489-1.137-0.339-1.739l0.466-1.863l1.354,0.338l-0.466,1.863
		c-0.05,0.201-0.009,0.413,0.113,0.58l0.485,0.665c0.528,0.726,0.536,1.706,0.018,2.439l-0.785,1.112l-1.14-0.805l0.682-0.967
		l0.08-0.979L9.418,40.221z M12.208,40.221c-0.366-0.503-0.489-1.137-0.339-1.739l0.466-1.863l1.354,0.338l-0.466,1.863
		c-0.05,0.201-0.009,0.413,0.113,0.58l0.485,0.665c0.528,0.726,0.536,1.706,0.018,2.439l-0.785,1.112l-1.14-0.805l0.682-0.967
		l0.08-0.979L12.208,40.221z M6.627,40.221c-0.366-0.503-0.489-1.137-0.339-1.739l0.466-1.863l1.354,0.338L7.642,38.82
		c-0.05,0.201-0.009,0.413,0.113,0.58l0.485,0.665c0.528,0.726,0.536,1.706,0.018,2.439l-0.785,1.112l-1.14-0.805l0.682-0.967
		l0.08-0.979L6.627,40.221z"/>
</g>
<g id="Layer_1">
</g>
</svg>
