<?xml version="1.0" encoding="iso-8859-1"?>
<!-- Generator: Adobe Illustrator 24.3.0, SVG Export Plug-In . SVG Version: 6.00 Build 0)  -->
<svg version="1.1" xmlns="http://www.w3.org/2000/svg" xmlns:xlink="http://www.w3.org/1999/xlink" x="0px" y="0px"
	 viewBox="0 0 64 64" style="enable-background:new 0 0 64 64;" xml:space="preserve">
<g id="fish-on-stick">
	<path style="fill:#231F20;" d="M64,3.967L60.032,0L49.26,10.772c-3.798-1.94-7.82-2.669-9.63-2.914l1.009-6.532
		c0.045-0.295-0.056-0.593-0.272-0.799s-0.518-0.292-0.812-0.232c-1.993,0.41-5.664,2.29-6.069,6.515
		c-5.601,1.105-6.079,5.3-6.097,5.486c-0.027,0.268,0.068,0.534,0.256,0.727c0.189,0.193,0.453,0.29,0.721,0.27l7.232-0.569
		c0.319,1.619,1.182,5.302,2.936,8.772l-2.714,2.714c-5.956-5.95-16.065-5.253-16.491-5.22c-0.448,0.034-0.805,0.39-0.839,0.839
		c-0.033,0.428-0.731,10.535,5.221,16.491l-1.682,1.682c-3.797-1.94-7.819-2.669-9.631-2.914l1.009-6.532
		c0.045-0.295-0.056-0.593-0.272-0.799c-0.216-0.206-0.519-0.291-0.812-0.232c-1.993,0.41-5.663,2.29-6.068,6.515
		c-5.601,1.104-6.08,5.3-6.098,5.486c-0.027,0.268,0.068,0.534,0.256,0.727c0.189,0.193,0.451,0.292,0.721,0.27l7.232-0.569
		c0.319,1.619,1.182,5.302,2.937,8.772L0,60.033L3.967,64l10.596-10.596c4.742,4.738,12.115,5.261,15.139,5.261
		c0.775,0,1.265-0.034,1.352-0.041c0.448-0.034,0.805-0.39,0.839-0.839c0.033-0.428,0.731-10.535-5.22-16.491l1.683-1.683
		c3.798,1.94,7.819,2.669,9.63,2.913l-1.009,6.532c-0.045,0.295,0.056,0.593,0.272,0.799c0.171,0.163,0.397,0.251,0.628,0.251
		c0.061,0,0.123-0.006,0.184-0.019c1.993-0.41,5.664-2.29,6.069-6.515c5.601-1.105,6.079-5.3,6.097-5.486
		c0.027-0.268-0.068-0.534-0.256-0.727c-0.189-0.193-0.453-0.29-0.721-0.27l-7.232,0.569c-0.318-1.619-1.181-5.302-2.936-8.772
		l2.714-2.714c4.742,4.738,12.115,5.261,15.14,5.261c0.775,0,1.264-0.034,1.351-0.041c0.448-0.034,0.805-0.39,0.839-0.839
		c0.033-0.428,0.731-10.536-5.22-16.491L64,3.967z M60.032,2.575l1.393,1.392l-8.892,8.892c-0.525-0.416-1.069-0.802-1.63-1.154
		L60.032,2.575z M20.28,20.78c1.58-0.011,5.204,0.116,8.77,1.394c-0.269,1.869-1.205,3.71-2.666,5.171
		c-1.31,1.309-2.909,2.192-4.58,2.559C20.4,26.223,20.261,22.407,20.28,20.78z M2.575,60.033l9.653-9.653
		c0.351,0.571,0.728,1.122,1.136,1.647l-9.397,9.397L2.575,60.033z M10.018,38.845c-0.069-0.447-0.454-0.772-0.899-0.772
		c-0.024,0-0.048,0.001-0.072,0.003l-6.693,0.526c0.544-1.031,1.842-2.463,4.899-2.881c0.452-0.061,0.788-0.447,0.788-0.902
		c0-2.96,1.96-4.398,3.337-5.043l-0.923,5.972c-0.038,0.25,0.028,0.505,0.185,0.703c0.157,0.198,0.389,0.323,0.641,0.343
		c0.091,0.008,9.112,0.795,14.1,5.784c1.023,1.023,1.818,2.204,2.449,3.442c-1.877,0.484-3.656,1.5-5.118,2.962
		c-1.62,1.621-2.697,3.651-3.1,5.748c-1.357-0.654-2.653-1.507-3.765-2.618C11.431,47.697,10.032,38.933,10.018,38.845z
		 M30.103,56.835c-1.564,0.021-5.195-0.109-8.769-1.393c0.269-1.87,1.205-3.711,2.665-5.172c1.31-1.309,2.909-2.193,4.581-2.559
		C29.984,51.392,30.122,55.208,30.103,56.835z M25.302,40.09c-0.525-0.416-1.069-0.802-1.63-1.154l1.411-1.411
		c0.525,0.416,1.069,0.802,1.63,1.154L25.302,40.09z M41.337,39.54l6.693-0.526c-0.544,1.031-1.841,2.463-4.899,2.881
		c-0.451,0.061-0.787,0.447-0.787,0.902c0,2.96-1.96,4.399-3.337,5.044l0.923-5.973c0.038-0.25-0.028-0.505-0.185-0.703
		c-0.157-0.198-0.389-0.323-0.641-0.343c-0.091-0.008-9.111-0.795-14.1-5.784c-1.023-1.023-1.818-2.204-2.449-3.442
		c1.878-0.484,3.655-1.5,5.118-2.962c1.621-1.621,2.698-3.651,3.101-5.747c1.356,0.653,2.652,1.505,3.765,2.618
		c4.414,4.415,5.815,13.181,5.828,13.269C40.439,39.242,40.871,39.58,41.337,39.54z M37.02,25.588l2.439-2.439
		c0.351,0.571,0.728,1.122,1.136,1.648l-2.439,2.439C37.806,26.665,37.428,26.113,37.02,25.588z M37.249,11.614
		c-0.069-0.447-0.454-0.772-0.899-0.772c-0.024,0-0.048,0.001-0.072,0.003l-6.693,0.526c0.544-1.031,1.841-2.463,4.899-2.881
		c0.451-0.061,0.787-0.447,0.787-0.902c0-2.96,1.96-4.399,3.337-5.044l-0.923,5.973c-0.038,0.25,0.028,0.505,0.185,0.703
		c0.157,0.198,0.389,0.323,0.641,0.343c0.091,0.008,9.111,0.796,14.1,5.784c1.023,1.023,1.818,2.204,2.449,3.442
		c-1.877,0.484-3.655,1.5-5.118,2.963c-1.62,1.62-2.697,3.65-3.1,5.747c-1.357-0.653-2.653-1.505-3.765-2.617
		C38.662,20.466,37.263,11.702,37.249,11.614z M57.334,29.605c-1.565,0.012-5.196-0.115-8.769-1.395
		c0.269-1.869,1.205-3.709,2.665-5.17c1.31-1.309,2.909-2.193,4.581-2.559C57.215,24.161,57.353,27.978,57.334,29.605z
		 M53.212,23.749L53.212,23.749c-0.762,0.763-0.761,2.002,0,2.763c0.368,0.369,0.859,0.573,1.382,0.573
		c0.521,0,1.012-0.203,1.382-0.573c0.761-0.761,0.762-2.001-0.001-2.764C55.213,22.987,53.973,22.989,53.212,23.749z M54.689,25.225
		c-0.045,0.045-0.145,0.044-0.189,0c-0.052-0.052-0.052-0.136,0-0.188c0.052-0.052,0.137-0.051,0.189,0
		C54.74,25.089,54.74,25.173,54.689,25.225z M23.021,27.207c0.521,0,1.012-0.203,1.381-0.573c0,0,0,0,0,0
		c0.761-0.761,0.761-2.001,0-2.763c-0.761-0.762-2.002-0.763-2.763,0c-0.369,0.369-0.573,0.86-0.573,1.383
		c0,0.522,0.204,1.013,0.573,1.381C22.007,27.004,22.498,27.207,23.021,27.207z M22.927,25.159c0.026-0.026,0.06-0.039,0.094-0.039
		c0.034,0,0.068,0.013,0.093,0.038c0.052,0.052,0.052,0.137,0,0.189v0c-0.066,0.064-0.124,0.064-0.189-0.001
		c-0.032-0.032-0.038-0.068-0.038-0.093C22.888,25.228,22.894,25.192,22.927,25.159z M25.981,50.98L25.981,50.98
		c-0.761,0.762-0.762,2.001,0.001,2.765c0.381,0.38,0.881,0.57,1.381,0.57c0.501,0,1.001-0.19,1.382-0.571
		c0.762-0.762,0.761-2.002,0-2.762C28.01,50.243,26.722,50.24,25.981,50.98z M27.458,52.456c-0.052,0.052-0.137,0.051-0.189,0
		c-0.052-0.052-0.052-0.137,0-0.189c0.045-0.045,0.145-0.044,0.189,0C27.509,52.32,27.509,52.405,27.458,52.456z"/>
</g>
<g id="Layer_1">
</g>
</svg>
