<?xml version="1.0" encoding="iso-8859-1"?>
<!-- Generator: Adobe Illustrator 24.3.0, SVG Export Plug-In . SVG Version: 6.00 Build 0)  -->
<svg version="1.1" xmlns="http://www.w3.org/2000/svg" xmlns:xlink="http://www.w3.org/1999/xlink" x="0px" y="0px"
	 viewBox="0 0 64 64" style="enable-background:new 0 0 64 64;" xml:space="preserve">
<g id="fishing-rod">
	<path style="fill:#231F20;" d="M56.079,29.801v1.634c0,0.322-0.262,0.584-0.584,0.584c-0.322,0-0.584-0.262-0.584-0.584V4.781
		h0.609V0.889c0-0.464-0.362-0.847-0.825-0.873c-0.103-0.008-5.507-0.267-12.722,1.698l-0.465-1.167l-1.625,0.648l0.404,1.013
		c-3.569,1.108-7.488,2.771-11.383,5.251l-1.047-1.284L26.501,7.28l0.939,1.153c-2.248,1.558-4.472,3.395-6.596,5.579
		c-0.418,0.43-0.821,0.864-1.214,1.301l-1.621-1.36l-1.125,1.34l1.6,1.343c-2.482,2.969-4.43,6.038-5.954,9.046l-1.42-0.661
		l-0.739,1.586l1.397,0.651C6.692,38.229,7.05,47.941,7.057,48.076l0.025-0.001c-0.012,0.059-0.036,0.114-0.036,0.176v14.873
		C7.046,63.609,7.438,64,7.921,64h3.785c0.483,0,0.875-0.391,0.875-0.875V48.252c0-0.484-0.392-0.875-0.875-0.875H8.799
		c0.005-0.801,0.055-2.349,0.306-4.423c0.919,1.472,2.549,2.457,4.409,2.457c2.868,0,5.201-2.333,5.201-5.2
		c0-2.868-2.333-5.201-5.201-5.201c-0.349,0-0.69,0.036-1.02,0.102c0.647-1.999,1.479-4.137,2.537-6.335l1.263,0.588l0.739-1.586
		l-1.213-0.565c1.433-2.724,3.228-5.508,5.481-8.214l0.955,0.801l1.125-1.34l-0.935-0.785c0.429-0.477,0.869-0.952,1.328-1.423
		c1.916-1.96,3.922-3.615,5.949-5.017l0.881,1.082l1.357-1.106l-0.768-0.942c3.572-2.248,7.163-3.744,10.42-4.734l0.485,1.215
		l1.625-0.648l-0.418-1.048C48.281,3.749,52.246,3.6,53.77,3.6v1.182h0.266v26.654c0,0.804,0.655,1.459,1.459,1.459
		c0.804,0,1.459-0.655,1.459-1.459v-1.634H56.079z M10.83,62.25H8.796V49.127h2.034V62.25z M16.965,40.21
		c0,1.902-1.548,3.45-3.45,3.45c-1.902,0-3.45-1.548-3.45-3.45c0-1.903,1.548-3.451,3.45-3.451
		C15.417,36.759,16.965,38.307,16.965,40.21z M11.479,35.425c-0.367,0.157-0.709,0.358-1.026,0.591
		c0.665-2.487,1.597-5.21,2.899-8.022l0.888,0.414C13.062,30.855,12.162,33.228,11.479,35.425z M15.027,26.843l-0.913-0.425
		c1.464-2.879,3.334-5.817,5.711-8.659l0.806,0.677C18.325,21.206,16.49,24.057,15.027,26.843z M23.148,15.641
		c-0.475,0.486-0.93,0.978-1.373,1.472l-0.803-0.674c0.366-0.405,0.738-0.808,1.126-1.207c2.076-2.135,4.251-3.926,6.449-5.44
		l0.625,0.767C27.119,11.983,25.089,13.655,23.148,15.641z M30.637,9.586l-0.622-0.763c3.742-2.36,7.502-3.94,10.919-4.991
		l0.353,0.885C37.955,5.737,34.285,7.277,30.637,9.586z M42.98,4.236l-0.355-0.889c5.23-1.401,9.436-1.589,11.145-1.597v0.974
		C52.177,2.723,48.093,2.881,42.98,4.236z"/>
</g>
<g id="Layer_1">
</g>
</svg>
