<?xml version="1.0" encoding="iso-8859-1"?>
<!-- Generator: Adobe Illustrator 24.3.0, SVG Export Plug-In . SVG Version: 6.00 Build 0)  -->
<svg version="1.1" xmlns="http://www.w3.org/2000/svg" xmlns:xlink="http://www.w3.org/1999/xlink" x="0px" y="0px"
	 viewBox="0 0 64 64" style="enable-background:new 0 0 64 64;" xml:space="preserve">
<g id="food">
	<path style="fill:#231F20;" d="M32.001,0C19.364,0,6.572,2.601,6.572,7.572v48.855C6.572,61.399,19.364,64,32.001,64
		c12.636,0,25.428-2.601,25.428-7.573V7.572C57.428,2.601,44.636,0,32.001,0z M32.001,2.129c14.222,0,23.299,3.224,23.299,5.443
		s-9.076,5.444-23.299,5.444c-14.223,0-23.3-3.225-23.3-5.444S17.777,2.129,32.001,2.129z M32.001,61.871
		c-14.223,0-23.3-3.225-23.3-5.444v-7.862c4.153,2.86,13.769,4.341,23.3,4.341c9.53,0,19.146-1.48,23.299-4.341v7.862
		C55.299,58.646,46.223,61.871,32.001,61.871z M32.001,50.777c-14.223,0-23.3-3.224-23.3-5.443v-23.5
		c4.153,2.861,13.769,4.341,23.3,4.341c9.53,0,19.146-1.48,23.299-4.341v23.5C55.299,47.553,46.223,50.777,32.001,50.777z
		 M32.001,24.045c-14.223,0-23.3-3.225-23.3-5.444v-7.797c4.153,2.861,13.769,4.341,23.3,4.341c9.53,0,19.146-1.48,23.299-4.341
		v7.797C55.299,20.82,46.223,24.045,32.001,24.045z M32.001,11.548c4.372,0,18.641-0.287,18.641-3.975
		c0-3.687-14.268-3.974-18.641-3.974S13.36,3.885,13.36,7.572C13.36,11.261,27.628,11.548,32.001,11.548z M32.001,5.727
		c8.53,0,14.505,1.01,16.185,1.845c-1.679,0.836-7.654,1.846-16.185,1.846s-14.506-1.01-16.186-1.846
		C17.494,6.737,23.47,5.727,32.001,5.727z M15.887,33.058H21.8v1.516h-4.042v2.345h3.593v1.509h-3.593v3.711h-1.871V33.058z
		 M29.266,34.131c-0.341-0.387-0.748-0.683-1.223-0.889c-0.474-0.206-0.996-0.309-1.566-0.309c-0.57,0-1.092,0.103-1.566,0.309
		c-0.474,0.206-0.882,0.502-1.223,0.889s-0.606,0.857-0.795,1.41s-0.284,1.175-0.284,1.865v0.399c0,0.694,0.096,1.317,0.287,1.868
		c0.191,0.551,0.458,1.018,0.802,1.4c0.343,0.383,0.752,0.677,1.226,0.883c0.474,0.206,0.996,0.309,1.566,0.309
		s1.092-0.103,1.566-0.309s0.881-0.5,1.219-0.883c0.339-0.383,0.602-0.849,0.789-1.4c0.187-0.551,0.281-1.174,0.281-1.868v-0.399
		c0-0.69-0.095-1.312-0.284-1.865S29.607,34.518,29.266,34.131z M28.449,37.805c0,0.952-0.168,1.678-0.505,2.177
		c-0.337,0.499-0.821,0.748-1.453,0.748c-0.316,0-0.597-0.063-0.842-0.19s-0.452-0.314-0.621-0.561s-0.297-0.553-0.387-0.917
		c-0.089-0.364-0.134-0.783-0.134-1.257v-0.412c0-0.952,0.17-1.676,0.511-2.171s0.827-0.742,1.46-0.742
		c0.632,0,1.119,0.247,1.46,0.742s0.511,1.218,0.511,2.171V37.805z M38.086,34.131c-0.341-0.387-0.748-0.683-1.223-0.889
		c-0.474-0.206-0.996-0.309-1.566-0.309s-1.092,0.103-1.566,0.309c-0.474,0.206-0.882,0.502-1.223,0.889
		c-0.341,0.387-0.606,0.857-0.795,1.41s-0.284,1.175-0.284,1.865v0.399c0,0.694,0.096,1.317,0.287,1.868
		c0.191,0.551,0.458,1.018,0.802,1.4c0.343,0.383,0.752,0.677,1.226,0.883c0.474,0.206,0.996,0.309,1.566,0.309
		s1.092-0.103,1.566-0.309c0.474-0.206,0.881-0.5,1.219-0.883c0.339-0.383,0.602-0.849,0.789-1.4
		c0.187-0.551,0.281-1.174,0.281-1.868v-0.399c0-0.69-0.095-1.312-0.284-1.865S38.427,34.518,38.086,34.131z M37.269,37.805
		c0,0.952-0.168,1.678-0.505,2.177c-0.337,0.499-0.821,0.748-1.453,0.748c-0.316,0-0.597-0.063-0.842-0.19s-0.452-0.314-0.621-0.561
		c-0.168-0.247-0.297-0.553-0.387-0.917c-0.089-0.364-0.134-0.783-0.134-1.257v-0.412c0-0.952,0.17-1.676,0.511-2.171
		c0.341-0.495,0.827-0.742,1.46-0.742s1.119,0.247,1.46,0.742c0.341,0.495,0.511,1.218,0.511,2.171V37.805z M46.31,34.259
		c-0.364-0.38-0.8-0.676-1.31-0.886c-0.509-0.21-1.07-0.315-1.681-0.315h-2.794v9.082h2.776c0.615,0,1.179-0.104,1.69-0.312
		c0.511-0.208,0.951-0.502,1.319-0.883s0.653-0.836,0.855-1.366c0.202-0.53,0.303-1.12,0.303-1.768V37.4
		c0-0.649-0.102-1.239-0.306-1.771C46.958,35.096,46.674,34.639,46.31,34.259z M45.571,37.811c0,0.907-0.193,1.604-0.58,2.093
		c-0.387,0.489-0.95,0.733-1.69,0.733h-0.904v-6.063h0.923c0.736,0,1.295,0.238,1.678,0.714c0.383,0.476,0.574,1.176,0.574,2.099
		V37.811z"/>
</g>
<g id="Layer_1">
</g>
</svg>
