<?xml version="1.0" encoding="iso-8859-1"?>
<!-- Generator: Adobe Illustrator 24.3.0, SVG Export Plug-In . SVG Version: 6.00 Build 0)  -->
<svg version="1.1" xmlns="http://www.w3.org/2000/svg" xmlns:xlink="http://www.w3.org/1999/xlink" x="0px" y="0px"
	 viewBox="0 0 64 64" style="enable-background:new 0 0 64 64;" xml:space="preserve">
<g id="gas-burner">
	<path style="fill:#231F20;" d="M41.632,17.915c0.367,0,0.711-0.183,0.916-0.488l7.824-11.637H64V3.582H49.785
		c-0.367,0-0.711,0.183-0.916,0.488l-7.824,11.637h-4.492V9.076h4.28c0.61,0,1.104-0.494,1.104-1.104v-4.81
		c0-0.61-0.494-1.104-1.104-1.104H23.168c-0.61,0-1.104,0.494-1.104,1.104v4.81c0,0.61,0.494,1.104,1.104,1.104h4.28v6.631h-4.492
		L15.132,4.07c-0.205-0.305-0.549-0.488-0.916-0.488H0v2.207h13.629l7.824,11.637c0.205,0.305,0.549,0.488,0.916,0.488h5.079v2.937
		H21.47c-8.519,0-15.45,6.931-15.45,15.45v24.536c0,0.61,0.494,1.104,1.104,1.104h49.754c0.61,0,1.104-0.494,1.104-1.104V36.301
		c0-8.519-6.931-15.45-15.45-15.45h-5.978v-2.937H41.632z M24.272,4.267h15.457v2.603h-4.28h-6.898h-4.28V4.267z M8.227,59.733
		v-5.518h47.547v5.518H8.227z M55.774,36.301v15.707H8.227V36.301c0-7.302,5.94-13.243,13.243-13.243h7.082h6.898h7.082
		C49.834,23.058,55.774,28.999,55.774,36.301z M29.655,20.851V9.076h4.691v11.775H29.655z"/>
</g>
<g id="Layer_1">
</g>
</svg>
