<?xml version="1.0" encoding="iso-8859-1"?>
<!-- Generator: Adobe Illustrator 24.3.0, SVG Export Plug-In . SVG Version: 6.00 Build 0)  -->
<svg version="1.1" xmlns="http://www.w3.org/2000/svg" xmlns:xlink="http://www.w3.org/1999/xlink" x="0px" y="0px"
	 viewBox="0 0 64 64" style="enable-background:new 0 0 64 64;" xml:space="preserve">
<g id="gun">
	<path style="fill:#231F20;" d="M63.031,13.561h-2.459l-1.963-1.964c-0.182-0.182-0.428-0.284-0.685-0.284h-3.269
		c-0.53,0-0.96,0.426-0.969,0.954H3.571c-0.535,0-0.969,0.433-0.969,0.969v12.26c0,0.354,0.193,0.679,0.503,0.85l2.644,1.448
		c1.316,0.721,1.866,2.305,1.279,3.687L0.31,47.296c-0.51,1.2-0.385,2.566,0.335,3.653c0.72,1.088,1.928,1.737,3.232,1.737h10.825
		c1.576,0,2.983-0.941,3.584-2.399l5.786-14.045l11.111-0.001c0.372,0,0.711-0.213,0.872-0.548l3.716-7.702h19.991
		c0.536,0,0.969-0.433,0.969-0.969v-4.168h2.3c0.536,0,0.969-0.433,0.969-0.969V14.53C64,13.995,63.567,13.561,63.031,13.561z
		 M27.648,14.205h22.479v1.145H27.648V14.205z M25.71,14.205v2.114c0,0.536,0.433,0.969,0.969,0.969h24.417
		c0.536,0,0.969-0.433,0.969-0.969v-2.114h2.59c0.53,0,0.96-0.426,0.969-0.954h1.899l1.68,1.68v5.986H4.54v-6.713H25.71z
		 M34.574,34.305l-9.66,0.001l2.358-5.298l3.808,2.758l1.137-1.569l-3.043-2.204h8.445L34.574,34.305z M27.094,26.054
		c-0.383,0-0.73,0.225-0.886,0.575l-3.67,8.249c-0.004,0.009-0.008,0.018-0.011,0.026L16.494,49.55
		c-0.3,0.729-1.004,1.199-1.792,1.199H3.877c-0.662,0-1.251-0.317-1.616-0.869c-0.365-0.552-0.426-1.218-0.167-1.827l6.719-15.816
		c0.978-2.301,0.061-4.942-2.132-6.143l-2.14-1.172v-2.067h54.253v3.199H27.094z M62.062,20.917H61.14v-5.418h0.923V20.917z
		 M8.761,19.701l-1.739-0.855l1.938-3.938l1.739,0.855L8.761,19.701z M12.636,19.701l-1.739-0.855l1.938-3.938l1.739,0.855
		L12.636,19.701z M16.512,19.701l-1.739-0.855l1.938-3.938l1.739,0.855L16.512,19.701z"/>
</g>
<g id="Layer_1">
</g>
</svg>
