<?xml version="1.0" encoding="iso-8859-1"?>
<!-- Generator: Adobe Illustrator 24.3.0, SVG Export Plug-In . SVG Version: 6.00 Build 0)  -->
<svg version="1.1" xmlns="http://www.w3.org/2000/svg" xmlns:xlink="http://www.w3.org/1999/xlink" x="0px" y="0px"
	 viewBox="0 0 64 64" style="enable-background:new 0 0 64 64;" xml:space="preserve">
<g id="ham-grill">
	<path style="fill:#231F20;" d="M60.277,56.81V10.18h-5.496v5.235H42.589c0.236-2.585,0.834-4.043,1.172-4.354
		c0.295,0.272,0.787,1.423,1.066,3.423h1.605c-0.325-2.552-1.096-5.053-2.671-5.053c-2.266,0-2.87,5.176-2.87,8.234
		s0.604,8.234,2.87,8.234c1.572,0,2.344-2.492,2.669-5.039h-1.605c-0.28,1.991-0.77,3.138-1.064,3.41
		c-0.339-0.313-0.941-1.784-1.175-4.392h12.196V56.81H35.483c1.077-0.585,2.009-1.406,2.744-2.469
		c1.837-2.654,2.229-6.436,0.93-8.994c-1.486-2.927-1.746-4.648-1.073-7.083c0.09-0.327-0.036-0.675-0.315-0.867
		c-0.278-0.193-0.649-0.188-0.923,0.012c-1.814,1.324-2.877,2.521-3.495,3.508c0.096-1.541,0.896-4.115,3.745-8.217
		c0.202-0.291,0.187-0.68-0.035-0.955c-0.223-0.276-0.602-0.37-0.926-0.234c-7.866,3.288-10.477,7.815-11.311,10.889
		c0.013-0.979,0.162-2.33,0.569-4.186c0.085-0.386-0.127-0.776-0.497-0.916c-0.37-0.141-0.787,0.014-0.978,0.359
		c-3.358,6.062-4.09,11.012-2.177,14.711c1.149,2.221,3.108,3.619,4.933,4.441H8.278V19.878h4.871v0.32
		c0,2.23,1.814,4.044,4.044,4.044h8.019c2.572,3.036,7.66,5.458,11.561,5.458h6.653c0.111,0.012,0.221,0.033,0.334,0.033
		c2.765,0,5.023-3.708,5.693-8.873h-1.601c-0.612,4.412-2.429,7.28-4.092,7.28v-0.033h-0.258c-1.966-0.342-4.05-4.527-4.05-10.442
		c0-6.173,2.271-10.475,4.308-10.475c1.665,0,3.484,2.875,4.094,7.294h1.601c-0.667-5.173-2.927-8.887-5.695-8.887h-6.987
		c-3.901,0-8.989,2.421-11.561,5.458h-8.019c-2.23,0-4.044,1.814-4.044,4.044v0.007H8.278V10.18H2.783v46.63H0v1.593h64V56.81
		H60.277z M14.742,15.099c0-1.352,1.1-2.451,2.451-2.451h8.397c0.245,0,0.477-0.113,0.628-0.306
		c2.179-2.793,7.013-5.152,10.555-5.152h4.024c-1.768,2.062-2.938,5.934-2.938,10.475c0,4.518,1.159,8.372,2.911,10.442h-3.997
		c-3.542,0-8.376-2.359-10.555-5.151c-0.151-0.193-0.383-0.306-0.628-0.306h-8.397c-1.352,0-2.451-1.1-2.451-2.451V15.099z
		 M42.5,18.285c-0.005-0.208-0.016-0.401-0.016-0.62c0-0.232,0.012-0.437,0.017-0.657h12.281v1.276H42.5z M56.375,11.773h2.309
		V56.81h-2.309V11.773z M27.76,52.034c0.228-2.318,2.192-4.225,3.06-4.964c0.882,0.753,2.899,2.716,3.127,5.082
		c0.134,1.389-0.39,2.74-1.547,4.019c-0.673,0.092-1.421,0.109-2.26,0.015c-0.224-0.025-0.521-0.079-0.861-0.16
		C28.141,54.749,27.625,53.407,27.76,52.034z M23.156,51.637c-1.177-2.276-1.149-5.185,0.08-8.682
		c0.044,1.231,0.298,2.158,0.763,2.772c0.4,0.529,0.901,0.739,1.236,0.759c0.233,0.014,0.471-0.08,0.634-0.255
		c0.162-0.176,0.236-0.415,0.203-0.652c-0.01-0.071-0.817-6.59,8.189-11.419c-4.413,7.454-1.758,9.772-1.41,10.031
		c0.255,0.19,0.596,0.194,0.872,0.035c0.275-0.159,0.427-0.483,0.39-0.799c-0.002-0.016-0.124-1.331,2.046-3.389
		c-0.141,2.109,0.481,3.869,1.578,6.03c0.878,1.729,0.89,4.899-0.819,7.366c-0.455,0.658-1.105,1.355-2.011,1.891
		c0.525-1.069,0.739-2.184,0.626-3.335c-0.366-3.743-4.033-6.43-4.189-6.543c-0.136-0.098-0.299-0.151-0.466-0.151h-0.111
		c-0.166,0-0.328,0.052-0.464,0.149c-0.153,0.11-3.759,2.729-4.127,6.423c-0.11,1.1,0.086,2.169,0.563,3.198
		C25.386,54.359,23.998,53.266,23.156,51.637z M13.149,16.699v1.586H8.278v-1.586H13.149z M4.376,11.773h2.309V56.81H4.376V11.773z"
		/>
</g>
<g id="Layer_1">
</g>
</svg>
