<?xml version="1.0" encoding="iso-8859-1"?>
<!-- Generator: Adobe Illustrator 24.3.0, SVG Export Plug-In . SVG Version: 6.00 Build 0)  -->
<svg version="1.1" xmlns="http://www.w3.org/2000/svg" xmlns:xlink="http://www.w3.org/1999/xlink" x="0px" y="0px"
	 viewBox="0 0 64 64" style="enable-background:new 0 0 64 64;" xml:space="preserve">
<g id="hand-drill-fire">
	<path style="fill:#231F20;" d="M59.889,13.958h-1.23c0.174-0.382,0.277-0.804,0.277-1.251c0-1.672-1.361-3.033-3.033-3.033h-5.796
		c0.555-0.739,0.896-1.647,0.896-2.639c0-0.906-0.738-1.644-1.644-1.644H37.562c-0.358,0-0.709,0.031-1.055,0.081V0h-6.619v9.675
		H14.698v1.782h15.191v0.359h-5.946c-2.955,0-5.591,1.662-6.875,4.284H1.078v1.782h17.175l0.223-0.563
		c0.895-2.26,3.041-3.721,5.467-3.721h11.654C35.525,14.99,34.37,16.1,32.962,16.1h-0.508h-6.106v1.782h6.106h0.508h9.322
		c0.69,0,1.251,0.561,1.251,1.251c0,0.69-0.561,1.251-1.251,1.251h-4.568h-6.015v1.782h6.015h4.568h3.986
		c0.69,0,1.251,0.561,1.251,1.251c0,0.69-0.561,1.251-1.251,1.251h-3.426h-5.127h-6.015v1.782h6.015h5.127
		c0.69,0,1.251,0.561,1.251,1.251s-0.561,1.251-1.251,1.251h-4.812h-6.33v1.782h6.33c0.69,0,1.251,0.561,1.251,1.251
		s-0.561,1.251-1.251,1.251H23.943c-2.426,0-4.572-1.46-5.467-3.72l-0.223-0.563H1.078v1.782h15.989
		c1.284,2.621,3.92,4.283,6.875,4.283h5.946v13.221l-1.601-1.677h-17.33V64h46.509V46.56H38.841l-2.333,2.158V35.016h1.523
		c1.672,0,3.033-1.361,3.033-3.033c0-0.447-0.103-0.868-0.277-1.251h2.057c1.672,0,3.033-1.361,3.033-3.033
		c0-0.447-0.103-0.868-0.277-1.251h0.671c1.672,0,3.033-1.361,3.033-3.033s-1.361-3.033-3.033-3.033h-1.23
		c0.174-0.382,0.277-0.804,0.277-1.251c0-1.672-1.361-3.033-3.033-3.033h-5.776v-0.025c0.543-0.735,0.875-1.634,0.875-2.615
		c0-0.627-0.357-1.167-0.875-1.444V7.278c0.343-0.065,0.695-0.105,1.055-0.105h11.654c-0.072,1.391-1.227,2.501-2.636,2.501h-0.508
		h-4.431l-0.013,0.878c-0.019,1.281-0.522,2.491-1.416,3.407l1.275,1.245c1.008-1.032,1.65-2.339,1.854-3.748h2.731h0.508h9.322
		c0.69,0,1.251,0.561,1.251,1.251c0,0.69-0.561,1.251-1.251,1.251h-4.568H45.32v1.782h6.015h4.568h3.986
		c0.69,0,1.251,0.561,1.251,1.251c0,0.69-0.561,1.251-1.251,1.251h-3.426h-5.127h-3.623v1.782h3.623h5.127
		c0.69,0,1.251,0.561,1.251,1.251c0,0.69-0.561,1.251-1.251,1.251H51.65h-0.748h-0.798v1.782h0.798h0.748
		c0.69,0,1.251,0.561,1.251,1.251c0,0.69-0.561,1.251-1.251,1.251h-4.518v1.782h4.518c1.672,0,3.033-1.361,3.033-3.033
		c0-0.447-0.103-0.868-0.277-1.251h2.057c1.672,0,3.033-1.361,3.033-3.033c0-0.447-0.103-0.868-0.277-1.251h0.671
		c1.672,0,3.033-1.361,3.033-3.033C62.922,15.319,61.561,13.958,59.889,13.958z M39.539,48.342h16.146v2.383h-11.36v1.782h11.36
		v1.763H39.7v1.782h15.984v1.999h-6.496v1.782h6.496v2.384H12.74v-2.384h3.317v-1.782H12.74v-1.999h12.806V54.27H12.74v-1.763h8.182
		v-1.782H12.74v-2.383h14.785l5.634,5.9L39.539,48.342z M34.726,50.366l-1.489,1.377l-1.566-1.64V35.016h3.054V50.366z
		 M31.671,1.782h3.054v10.034h-3.054V1.782z M22.948,41.079c0,0.379,0.887,1.213,3.266,1.837l-0.452,1.724
		c-2.964-0.777-4.597-2.042-4.597-3.561c0-1.966,2.749-3.493,7.354-4.084l0.227,1.767C24.648,39.288,22.948,40.531,22.948,41.079z
		 M43.449,41.079c0-0.473-1.228-1.408-3.959-2.003l0.379-1.741c3.457,0.754,5.361,2.084,5.361,3.744c0,2.019-2.859,3.559-7.648,4.12
		l-0.207-1.77C41.668,42.926,43.449,41.65,43.449,41.079z"/>
</g>
<g id="Layer_1">
</g>
</svg>
