<?xml version="1.0" encoding="iso-8859-1"?>
<!-- Generator: Adobe Illustrator 24.3.0, SVG Export Plug-In . SVG Version: 6.00 Build 0)  -->
<svg version="1.1" xmlns="http://www.w3.org/2000/svg" xmlns:xlink="http://www.w3.org/1999/xlink" x="0px" y="0px"
	 viewBox="0 0 64 64" style="enable-background:new 0 0 64 64;" xml:space="preserve">
<g id="islan-shark-dangerous">
	<path style="fill:#231F20;" d="M62.176,51.606c-0.484-0.569-1.068-1.241-2.019-1.505c-0.2-7.291-7.531-9.186-7.606-9.204
		c-0.206-0.051-0.425-0.005-0.591,0.127c-0.167,0.131-0.264,0.331-0.264,0.544v8.98c-0.217-0.154-0.461-0.286-0.737-0.385
		l0.128-0.074c-1.356-2.34-3.876-3.794-6.578-3.794h-7.25c-3.6-10.043-4.114-15.087-3.958-17.508
		c0.622-0.082,1.207-0.337,1.686-0.763c0.164-0.147,0.309-0.309,0.438-0.481c3.172,1.595,9.6,5.541,15.448,9.387
		c0.219,0.144,0.5,0.15,0.728,0.02c0.227-0.132,0.359-0.381,0.341-0.643c-0.026-0.392-0.73-9.645-8.416-12.136
		c-2.165-0.701-4.034-1.059-5.569-1.223c3.93-1.088,9.773-2.231,14.594-1.228c0.278,0.06,0.556-0.057,0.713-0.289
		c0.157-0.231,0.158-0.535,0.004-0.769c-1.915-2.89-4.301-4.593-7.09-5.062c-2.412-0.406-5.12,0.115-8.091,1.551
		c6.007-5.422,9.325-6.341,9.363-6.35c0.283-0.071,0.492-0.313,0.52-0.604c0.028-0.291-0.129-0.569-0.395-0.692
		c-0.19-0.089-4.686-2.145-9.538-0.126c-3.329,1.385-5.96,4.32-7.836,8.739c-2.09-4.32-4.867-7.136-8.271-8.383
		c-4.967-1.819-9.393,0.407-9.579,0.502c-0.26,0.134-0.406,0.417-0.367,0.707c0.039,0.29,0.259,0.524,0.545,0.583
		c0.041,0.009,3.4,0.764,9.666,5.885c-3.039-1.289-5.769-1.677-8.158-1.154c-2.763,0.605-5.062,2.423-6.834,5.403
		c-0.143,0.241-0.127,0.544,0.041,0.767c0.168,0.224,0.455,0.324,0.726,0.254c4.764-1.24,10.655-0.382,14.635,0.513
		c-1.524,0.239-3.374,0.688-5.5,1.493c-7.139,2.706-7.756,11.138-7.808,12.39c-0.038,0.167-0.016,0.35,0.114,0.542
		c0.169,0.25,0.479,0.359,0.768,0.276c0.208-0.062,0.37-0.215,0.446-0.409c1.063-1.126,10.542-7.481,14.748-9.78
		c0.093,0.109,0.184,0.22,0.293,0.317c0.423,0.376,0.928,0.622,1.468,0.732c0.302,2.867,0.212,8.539-2.741,17.538h-3.137
		c-2.776,0-5.33,1.514-6.665,3.951l1.211,0.664c1.093-1.994,3.182-3.233,5.454-3.233h23.256c1.9,0,3.687,0.883,4.857,2.346
		c-1.154,0.183-1.808,0.951-2.346,1.583c-0.618,0.727-1.008,1.138-1.824,1.138c-0.817,0-1.207-0.411-1.826-1.138
		c-0.616-0.724-1.383-1.624-2.878-1.624c-1.496,0-2.263,0.9-2.879,1.624c-0.62,0.727-1.01,1.138-1.828,1.138
		c-0.819,0-1.209-0.411-1.829-1.138c-0.616-0.724-1.383-1.624-2.879-1.624v1.381c0.818,0,1.208,0.411,1.828,1.138
		c0.617,0.724,1.384,1.624,2.88,1.624c1.496,0,2.263-0.9,2.879-1.624c0.62-0.727,1.01-1.138,1.828-1.138
		c0.817,0,1.207,0.411,1.826,1.138c0.616,0.724,1.383,1.624,2.878,1.624c1.494,0,2.261-0.901,2.876-1.625
		c0.618-0.726,1.008-1.138,1.824-1.138c0.817,0,1.207,0.411,1.826,1.138c0.616,0.724,1.382,1.624,2.878,1.624
		c1.494,0,2.261-0.9,2.876-1.624c0.618-0.727,1.008-1.138,1.825-1.138c0.817,0,1.206,0.411,1.825,1.138
		c0.616,0.724,1.382,1.624,2.876,1.624v-1.381C63.184,52.743,62.794,52.332,62.176,51.606z M34.067,26.992
		c-0.356,0.317-0.814,0.476-1.289,0.448c-0.912-0.053-1.617-0.788-1.668-1.68c0.94-0.27,1.703-0.953,2.065-1.851
		c0.885,0.149,1.54,0.937,1.487,1.853C34.634,26.238,34.423,26.675,34.067,26.992z M30.242,20.948c0.983,0,1.783,0.8,1.783,1.783
		c0,0.983-0.8,1.784-1.783,1.784c-0.983,0-1.783-0.801-1.783-1.784C28.459,21.748,29.259,20.948,30.242,20.948z M43.097,25.484
		c5.069,1.642,6.726,6.867,7.243,9.446c-1.186-0.774-2.484-1.612-3.818-2.457l0.527-0.863l-1.179-0.72l-0.517,0.846
		c-1.638-1.027-3.296-2.042-4.843-2.948l0.559-0.808l-1.136-0.785l-0.622,0.899c-1.247-0.71-2.388-1.323-3.345-1.782
		c0.032-0.154,0.064-0.309,0.073-0.47c0.034-0.588-0.106-1.142-0.36-1.63C37.335,24.201,39.853,24.433,43.097,25.484z
		 M45.947,16.961c1.946,0.328,3.68,1.379,5.171,3.133c-0.964-0.11-1.948-0.152-2.935-0.144l-0.036-1.126l-1.38,0.045l0.036,1.126
		c-1.146,0.063-2.284,0.185-3.386,0.35l-0.121-1.004l-1.372,0.166l0.128,1.065c-1.145,0.209-2.234,0.453-3.237,0.707l-0.191-0.921
		l-1.353,0.281l0.207,0.996c-1.466,0.411-2.661,0.811-3.451,1.093c-0.204-0.08-0.416-0.137-0.639-0.174
		c-0.015-0.265-0.064-0.519-0.141-0.762c0.083-0.023,0.163-0.061,0.236-0.116C38.333,17.972,42.529,16.385,45.947,16.961z
		 M38.549,10.661c2.6-1.086,5.14-0.825,6.742-0.448c-0.565,0.285-1.258,0.671-2.074,1.191l-0.833-0.921l-1.025,0.927l0.697,0.771
		c-0.876,0.61-1.863,1.357-2.954,2.261l-0.683-0.715l-0.998,0.954l0.627,0.656c-0.768,0.668-1.58,1.409-2.439,2.234l-0.493-0.486
		l-0.971,0.983l0.475,0.469c-0.654,0.651-1.331,1.344-2.033,2.09c-0.403-0.448-0.927-0.776-1.525-0.938
		C32.814,15.046,35.33,12.007,38.549,10.661z M22.141,15.598l0.594-0.686l-1.044-0.904l-0.647,0.747
		c-1.135-0.849-2.156-1.546-3.061-2.113l0.659-0.804l-1.068-0.875l-0.787,0.961c-0.825-0.47-1.527-0.819-2.099-1.075
		c1.598-0.436,4.13-0.789,6.784,0.189c3.289,1.211,5.953,4.126,7.929,8.657c-0.596,0.166-1.117,0.497-1.516,0.948
		c-0.001-0.001-0.002-0.003-0.003-0.004c-0.748-0.721-1.466-1.388-2.16-2.014l0.451-0.492l-1.018-0.933l-0.467,0.509
		C23.788,16.928,22.94,16.228,22.141,15.598z M13.623,20.677l-0.019-1.125l-1.381,0.023l0.019,1.125
		c-0.985,0.04-1.966,0.131-2.924,0.289c1.403-1.824,3.084-2.959,5.012-3.381c3.389-0.743,7.654,0.637,12.679,4.097
		c0.07,0.048,0.146,0.079,0.224,0.098c-0.077,0.248-0.126,0.506-0.14,0.776c-0.209,0.046-0.41,0.111-0.601,0.195
		c-0.802-0.242-2.007-0.581-3.475-0.916l0.157-1.003l-1.364-0.214l-0.145,0.927c-1.014-0.204-2.114-0.395-3.269-0.548l0.076-1.069
		l-1.378-0.097l-0.071,1.006C15.914,20.75,14.771,20.684,13.623,20.677z M21.369,28.449l-0.784-1.023l-1.097,0.84l0.703,0.917
		c-0.37,0.233-0.756,0.479-1.165,0.742c-1.221,0.783-2.445,1.591-3.592,2.364l-0.6-0.882l-1.142,0.777l0.6,0.882
		c-1.376,0.944-2.581,1.803-3.436,2.452c0.438-2.677,1.898-7.704,6.735-9.537c3.151-1.195,5.648-1.552,7.309-1.626
		c-0.208,0.454-0.324,0.956-0.293,1.487c0.013,0.222,0.051,0.438,0.107,0.647C23.879,26.938,22.791,27.571,21.369,28.449z
		 M25.988,25.763c-0.05-0.862,0.525-1.618,1.33-1.828c0.387,0.938,1.213,1.646,2.22,1.876c-0.074,0.869-0.771,1.577-1.667,1.629
		c-0.477,0.028-0.933-0.132-1.289-0.448C26.226,26.675,26.015,26.238,25.988,25.763z M28.533,28.726
		c0.74-0.184,1.362-0.632,1.791-1.227c0.387,0.537,0.934,0.948,1.582,1.159c-0.19,2.764,0.458,7.963,3.888,17.636h-9.953
		C28.689,37.452,28.841,31.772,28.533,28.726z M56.422,51.606c-0.618,0.726-1.008,1.138-1.824,1.138
		c-0.675,0-1.06-0.284-1.521-0.792v-9.432c1.739,0.674,5.497,2.692,5.69,7.503C57.613,50.206,56.96,50.973,56.422,51.606z
		 M32.924,54.124v1.381c-1.494,0-2.261-0.9-2.877-1.624c-0.618-0.727-1.008-1.138-1.825-1.138c-0.816,0-1.206,0.411-1.825,1.138
		c-0.616,0.724-1.383,1.624-2.877,1.624c-1.495,0-2.261-0.9-2.877-1.624c-0.619-0.727-1.009-1.138-1.825-1.138
		c-0.816,0-1.205,0.411-1.824,1.138c-0.616,0.724-1.382,1.625-2.876,1.625c-1.495,0-2.262-0.9-2.878-1.624
		c-0.619-0.727-1.009-1.138-1.827-1.138c-0.818,0-1.209,0.411-1.828,1.138c-0.616,0.724-1.384,1.624-2.879,1.624
		s-2.263-0.9-2.879-1.624C1.209,53.155,0.818,52.743,0,52.743v-1.381c1.496,0,2.263,0.9,2.879,1.624
		c0.619,0.727,1.01,1.138,1.828,1.138s1.209-0.411,1.828-1.138c0.616-0.724,1.384-1.624,2.879-1.624c1.495,0,2.262,0.9,2.878,1.624
		c0.619,0.727,1.009,1.138,1.826,1.138c0.816,0,1.206-0.411,1.824-1.138c0.616-0.724,1.382-1.624,2.876-1.624
		c1.495,0,2.261,0.9,2.877,1.624c0.619,0.727,1.009,1.138,1.825,1.138c0.817,0,1.206-0.411,1.825-1.138
		c0.616-0.724,1.382-1.624,2.877-1.624c1.494,0,2.261,0.9,2.877,1.624C31.718,53.713,32.108,54.124,32.924,54.124z"/>
</g>
<g id="Layer_1">
</g>
</svg>
