<?xml version="1.0" encoding="iso-8859-1"?>
<!-- Generator: Adobe Illustrator 24.3.0, SVG Export Plug-In . SVG Version: 6.00 Build 0)  -->
<svg version="1.1" xmlns="http://www.w3.org/2000/svg" xmlns:xlink="http://www.w3.org/1999/xlink" x="0px" y="0px"
	 viewBox="0 0 64 64" style="enable-background:new 0 0 64 64;" xml:space="preserve">
<g id="knife">
	<path style="fill:#231F20;" d="M63.857,2.035c-0.093-0.362-0.367-0.649-0.724-0.76c-0.358-0.113-0.746-0.029-1.027,0.217
		L1.686,54.152c-0.99,0.863-1.584,2.059-1.674,3.369s0.336,2.577,1.198,3.566c0.863,0.99,2.059,1.584,3.369,1.674
		c0.115,0.008,0.229,0.012,0.343,0.012c1.186,0,2.32-0.423,3.223-1.211L26.542,45.53l2.964,3.4c0.391,0.447,1.071,0.494,1.52,0.104
		C67.308,17.411,64.016,2.648,63.857,2.035z M6.73,59.94c-0.555,0.485-1.264,0.721-2.004,0.674c-0.736-0.05-1.408-0.384-1.893-0.941
		c-0.485-0.556-0.724-1.267-0.673-2.003c0.05-0.736,0.384-1.408,0.941-1.893l18.396-16.033l3.629,4.163L6.73,59.94z M30.42,46.701
		l-2.962-3.398l-4.336-4.975l0.766-0.668l7.291,8.365C30.924,46.251,30.68,46.473,30.42,46.701z M32.788,44.592l-7.276-8.348
		L61.767,4.646C61.263,9.409,57.357,22.416,32.788,44.592z"/>
</g>
<g id="Layer_1">
</g>
</svg>
