<?xml version="1.0" encoding="iso-8859-1"?>
<!-- Generator: Adobe Illustrator 24.3.0, SVG Export Plug-In . SVG Version: 6.00 Build 0)  -->
<svg version="1.1" xmlns="http://www.w3.org/2000/svg" xmlns:xlink="http://www.w3.org/1999/xlink" x="0px" y="0px"
	 viewBox="0 0 64 64" style="enable-background:new 0 0 64 64;" xml:space="preserve">
<g id="life-buoy">
	<path style="fill:#231F20;" d="M32,0C14.355,0,0,14.355,0,32c0,17.645,14.355,32,32,32c17.645,0,32-14.355,32-32
		C64,14.355,49.645,0,32,0z M61.789,32c0,2.749-0.382,5.408-1.082,7.937l-12.84-3.706c0.361-1.353,0.572-2.767,0.572-4.232
		c0-1.347-0.181-2.65-0.488-3.904L60.8,24.389C61.443,26.819,61.789,29.37,61.789,32z M32,46.228
		c-7.845,0-14.228-6.383-14.228-14.228S24.154,17.772,32,17.772S46.228,24.154,46.228,32S39.845,46.228,32,46.228z M2.211,32
		c0-2.63,0.346-5.18,0.989-7.611l12.849,3.707c-0.307,1.254-0.488,2.557-0.488,3.904c0,1.465,0.211,2.879,0.572,4.232l-12.84,3.706
		C2.593,37.408,2.211,34.748,2.211,32z M60.15,22.274l-12.866,3.713c-1.644-4.163-4.93-7.499-9.066-9.196L41.933,3.92
		C50.448,6.941,57.19,13.73,60.15,22.274z M39.821,3.26l-3.707,12.843c-1.318-0.342-2.692-0.542-4.115-0.542
		c-1.423,0-2.797,0.201-4.115,0.542L24.178,3.26c2.494-0.68,5.115-1.049,7.821-1.049C34.706,2.211,37.327,2.581,39.821,3.26z
		 M22.067,3.92l3.714,12.871c-4.136,1.697-7.422,5.033-9.066,9.196L3.85,22.274C6.81,13.73,13.552,6.941,22.067,3.92z M3.959,42.047
		l12.874-3.715c1.696,4.047,4.968,7.268,9.041,8.911L22.16,60.111C13.707,57.144,6.986,50.471,3.959,42.047z M24.272,60.767
		l3.707-12.846c1.289,0.326,2.631,0.518,4.02,0.518c1.389,0,2.731-0.192,4.021-0.518l3.707,12.846
		c-2.466,0.663-5.055,1.023-7.728,1.023C29.327,61.789,26.738,61.43,24.272,60.767z M41.84,60.111l-3.714-12.869
		c4.074-1.643,7.346-4.865,9.041-8.911l12.874,3.715C57.014,50.471,50.292,57.144,41.84,60.111z"/>
</g>
<g id="Layer_1">
</g>
</svg>
