<?xml version="1.0" encoding="iso-8859-1"?>
<!-- Generator: Adobe Illustrator 24.3.0, SVG Export Plug-In . SVG Version: 6.00 Build 0)  -->
<svg version="1.1" xmlns="http://www.w3.org/2000/svg" xmlns:xlink="http://www.w3.org/1999/xlink" x="0px" y="0px"
	 viewBox="0 0 64 64" style="enable-background:new 0 0 64 64;" xml:space="preserve">
<g id="lighter">
	<path style="fill:#231F20;" d="M52.648,31.134h-5.846v-7.158c0-0.56-0.454-1.015-1.015-1.015h-4.259
		c1.036-1.057,1.677-2.502,1.677-4.095c0-2.91-4.511-9.434-5.026-10.168c-0.38-0.542-1.282-0.542-1.662,0
		c-0.515,0.734-5.025,7.258-5.025,10.168c0,1.593,0.641,3.038,1.677,4.095H28.91c-0.56,0-1.015,0.454-1.015,1.015v7.158h-1.138
		c-0.324-1.503-1.352-2.74-2.719-3.364l2.078-25.984c0.022-0.268-0.064-0.534-0.239-0.739c-0.174-0.205-0.423-0.332-0.692-0.353
		l-8.512-0.681c-2.234-0.18-4.191,1.49-4.37,3.722l-1.955,24.433c-0.086,1.081,0.254,2.13,0.957,2.955
		c0.703,0.825,1.686,1.327,2.766,1.414l3.22,0.258c0.274,2.015,1.777,3.64,3.741,4.063v24.099c0,1.679,1.365,3.044,3.044,3.044
		h26.54c1.679,0,3.044-1.365,3.044-3.044V32.148C53.662,31.588,53.208,31.134,52.648,31.134z M37.348,11.09
		c1.733,2.638,3.827,6.308,3.827,7.776c0,2.11-1.717,3.827-3.827,3.827c-2.11,0-3.827-1.717-3.827-3.827
		C33.521,17.399,35.616,13.73,37.348,11.09z M29.925,24.99h14.847v6.143H29.925V24.99z M17.453,30.771l-3.218-0.257
		c-0.541-0.043-1.032-0.294-1.383-0.707c-0.352-0.413-0.522-0.937-0.479-1.478l1.954-24.432c0.085-1.061,0.976-1.868,2.022-1.868
		c0.054,0,0.109,0.002,0.164,0.006l7.501,0.6l-1.975,24.693C19.867,27.333,18.049,28.79,17.453,30.771z M19.258,32.148
		c0-1.539,1.252-2.791,2.791-2.791s2.791,1.252,2.791,2.791c0,1.539-1.252,2.791-2.791,2.791S19.258,33.688,19.258,32.148z
		 M51.633,60.956c0,0.559-0.455,1.015-1.015,1.015h-26.54c-0.559,0-1.015-0.455-1.015-1.015V36.857
		c1.844-0.397,3.297-1.85,3.694-3.694h2.152h16.876h5.846V60.956z"/>
</g>
<g id="Layer_1">
</g>
</svg>
