<?xml version="1.0" encoding="iso-8859-1"?>
<!-- Generator: Adobe Illustrator 24.3.0, SVG Export Plug-In . SVG Version: 6.00 Build 0)  -->
<svg version="1.1" xmlns="http://www.w3.org/2000/svg" xmlns:xlink="http://www.w3.org/1999/xlink" x="0px" y="0px"
	 viewBox="0 0 64 64" style="enable-background:new 0 0 64 64;" xml:space="preserve">
<g id="match-box">
	<path style="fill:#231F20;" d="M51.291,18.316h-1.061V1.106C50.229,0.494,49.735,0,49.124,0H14.875
		c-0.611,0-1.106,0.494-1.106,1.106v17.211h-1.06c-0.611,0-1.106,0.494-1.106,1.106v43.472c0,0.611,0.494,1.106,1.106,1.106h38.582
		c0.611,0,1.106-0.494,1.106-1.106V19.422C52.396,18.811,51.902,18.316,51.291,18.316z M15.981,2.211h32.038v16.105h-2.479v-6.124
		c0.953-0.587,1.588-1.934,1.588-3.579c0-2.222-1.158-3.898-2.694-3.898S41.74,6.392,41.74,8.614c0,1.645,0.635,2.992,1.588,3.579
		v6.124h-4.006v-6.124c0.953-0.587,1.588-1.934,1.588-3.579c0-2.222-1.158-3.898-2.694-3.898s-2.694,1.676-2.694,3.898
		c0,1.645,0.635,2.992,1.588,3.579v6.124h-4.007v-6.124c0.953-0.587,1.588-1.934,1.588-3.579c0-2.222-1.158-3.898-2.694-3.898
		c-1.535,0-2.694,1.676-2.694,3.898c0,1.645,0.635,2.992,1.588,3.579v6.124h-4.006v-6.124c0.953-0.587,1.588-1.934,1.588-3.579
		c0-2.222-1.158-3.898-2.694-3.898s-2.694,1.676-2.694,3.898c0,1.645,0.635,2.992,1.588,3.579v6.124h-4.007v-6.124
		c0.953-0.587,1.589-1.934,1.589-3.579c0-2.222-1.158-3.898-2.695-3.898c-1.535,0-2.694,1.676-2.694,3.898
		c0,1.645,0.635,2.992,1.588,3.579v6.124h-2.479V2.211z M43.951,8.614c0-0.909,0.303-1.483,0.483-1.653
		c0.179,0.17,0.483,0.744,0.483,1.653s-0.303,1.483-0.483,1.653C44.255,10.097,43.951,9.523,43.951,8.614z M37.735,8.614
		c0-0.909,0.303-1.483,0.483-1.653C38.396,7.13,38.7,7.704,38.7,8.614s-0.303,1.483-0.483,1.653
		C38.038,10.097,37.735,9.523,37.735,8.614z M31.517,8.614c0-0.909,0.303-1.483,0.483-1.653c0.179,0.17,0.483,0.744,0.483,1.653
		s-0.303,1.483-0.483,1.653C31.82,10.097,31.517,9.523,31.517,8.614z M25.3,8.614c0-0.909,0.303-1.483,0.483-1.653
		c0.179,0.17,0.483,0.744,0.483,1.653s-0.303,1.483-0.483,1.653C25.604,10.097,25.3,9.523,25.3,8.614z M19.082,8.614
		c0-0.909,0.304-1.485,0.483-1.653c0.179,0.168,0.484,0.743,0.484,1.653s-0.304,1.485-0.484,1.653
		C19.387,10.098,19.082,9.523,19.082,8.614z M50.185,61.789h-36.37V20.528h36.37V61.789z M17.042,59.118h29.916
		c0.611,0,1.106-0.494,1.106-1.106V24.303c0-0.611-0.494-1.106-1.106-1.106H17.042c-0.611,0-1.106,0.494-1.106,1.106v33.709
		C15.936,58.623,16.431,59.118,17.042,59.118z M18.147,25.409h27.705v31.498H18.147V25.409z M39.185,35.154
		c2.74,4.947,3.293,9.072,1.643,12.261c-2.272,4.388-7.666,5.03-7.72,5.037c-0.372,0.041-0.738,0.062-1.095,0.062
		c-2.578,0-4.718-1.066-6.102-3.065c-1.595-2.305-1.928-5.601-0.792-7.837c1.173-2.309,1.37-3.591,0.846-5.483
		c-0.125-0.453,0.05-0.936,0.437-1.204c0.385-0.27,0.899-0.261,1.28,0.016c0.7,0.512,1.272,1.003,1.737,1.467
		c-0.425-1.181-1.21-2.733-2.58-4.705c-0.281-0.404-0.26-0.944,0.049-1.326c0.31-0.382,0.835-0.511,1.286-0.325
		c10.785,4.509,9.864,11.889,9.819,12.201l-2.191-0.302c0.026-0.209,0.478-4.472-5.08-8.088c2.598,5.187,0.718,7.01,0.241,7.367
		c-0.367,0.273-0.863,0.294-1.25,0.049c-0.386-0.243-0.583-0.698-0.496-1.146c-0.006-0.001-0.018-0.576-0.802-1.545
		c-0.12,1.357-0.607,2.608-1.326,4.024c-0.67,1.319-0.614,3.766,0.639,5.578c0.773,1.115,2.29,2.383,5.136,2.064
		c1.102-0.121,4.567-1.09,5.999-3.855c1.288-2.49,0.746-5.912-1.614-10.173L39.185,35.154z"/>
</g>
<g id="Layer_1">
</g>
</svg>
