<?xml version="1.0" encoding="iso-8859-1"?>
<!-- Generator: Adobe Illustrator 24.3.0, SVG Export Plug-In . SVG Version: 6.00 Build 0)  -->
<svg version="1.1" xmlns="http://www.w3.org/2000/svg" xmlns:xlink="http://www.w3.org/1999/xlink" x="0px" y="0px"
	 viewBox="0 0 64 64" style="enable-background:new 0 0 64 64;" xml:space="preserve">
<g id="medical-aid">
	<path style="fill:#231F20;" d="M59.733,16.555H45.296v-4.806c0-2.469-2.009-4.478-4.478-4.478H23.182
		c-2.469,0-4.478,2.009-4.478,4.478v4.806H4.267C1.914,16.555,0,18.468,0,20.821v31.642c0,2.353,1.914,4.267,4.267,4.267h55.467
		c2.353,0,4.267-1.914,4.267-4.267V20.821C64,18.468,62.086,16.555,59.733,16.555z M20.837,11.748c0-1.293,1.052-2.345,2.344-2.345
		h17.636c1.293,0,2.345,1.052,2.345,2.345v4.806H20.837V11.748z M61.867,52.463c0,1.176-0.957,2.133-2.133,2.133H4.267
		c-1.177,0-2.133-0.957-2.133-2.133V20.821c0-1.176,0.957-2.133,2.133-2.133h55.467c1.177,0,2.133,0.957,2.133,2.133V52.463z
		 M33.067,35.576h5.408v2.133h-5.408v5.408h-2.133v-5.408h-5.408v-2.133h5.408v-5.407h2.133V35.576z M32,24.177
		c-6.873,0-12.466,5.592-12.466,12.466S25.127,49.108,32,49.108s12.466-5.592,12.466-12.466S38.873,24.177,32,24.177z M32,46.974
		c-5.697,0-10.332-4.635-10.332-10.332S26.303,26.31,32,26.31s10.332,4.635,10.332,10.332S37.697,46.974,32,46.974z"/>
</g>
<g id="Layer_1">
</g>
</svg>
