<?xml version="1.0" encoding="utf-8"?>
<!-- Generator: Adobe Illustrator 19.0.1, SVG Export Plug-In . SVG Version: 6.00 Build 0)  -->
<svg version="1.1" id="notepad_1_" xmlns="http://www.w3.org/2000/svg" xmlns:xlink="http://www.w3.org/1999/xlink" x="0px" y="0px"
	 viewBox="0 0 128 128" style="enable-background:new 0 0 128 128;" xml:space="preserve">
<style type="text/css">
	.st0{display:none;}
	.st1{display:inline;}
	.st2{fill:#161616;}
	.st3{display:inline;fill-rule:evenodd;clip-rule:evenodd;fill:#161616;}
	.st4{clip-path:url(#SVGID_2_);fill-rule:evenodd;clip-rule:evenodd;fill:#14162D;}
	.st5{clip-path:url(#SVGID_2_);fill-rule:evenodd;clip-rule:evenodd;fill:#14162C;}
	.st6{clip-path:url(#SVGID_2_);fill-rule:evenodd;clip-rule:evenodd;fill:#13152B;}
	.st7{clip-path:url(#SVGID_2_);fill-rule:evenodd;clip-rule:evenodd;fill:#13152A;}
	.st8{clip-path:url(#SVGID_2_);fill-rule:evenodd;clip-rule:evenodd;fill:#131529;}
	.st9{clip-path:url(#SVGID_2_);fill-rule:evenodd;clip-rule:evenodd;fill:#131428;}
	.st10{clip-path:url(#SVGID_2_);fill-rule:evenodd;clip-rule:evenodd;fill:#121427;}
	.st11{clip-path:url(#SVGID_2_);fill-rule:evenodd;clip-rule:evenodd;fill:#121426;}
	.st12{clip-path:url(#SVGID_2_);fill-rule:evenodd;clip-rule:evenodd;fill:#121325;}
	.st13{clip-path:url(#SVGID_2_);fill-rule:evenodd;clip-rule:evenodd;fill:#111324;}
	.st14{clip-path:url(#SVGID_2_);fill-rule:evenodd;clip-rule:evenodd;fill:#111223;}
	.st15{clip-path:url(#SVGID_2_);fill-rule:evenodd;clip-rule:evenodd;fill:#111222;}
	.st16{clip-path:url(#SVGID_2_);fill-rule:evenodd;clip-rule:evenodd;fill:#101221;}
	.st17{clip-path:url(#SVGID_2_);fill-rule:evenodd;clip-rule:evenodd;fill:#101120;}
	.st18{clip-path:url(#SVGID_2_);fill-rule:evenodd;clip-rule:evenodd;fill:#10111F;}
	.st19{clip-path:url(#SVGID_2_);fill-rule:evenodd;clip-rule:evenodd;fill:#10111E;}
	.st20{clip-path:url(#SVGID_2_);fill-rule:evenodd;clip-rule:evenodd;fill:#0F101D;}
	.st21{clip-path:url(#SVGID_2_);fill-rule:evenodd;clip-rule:evenodd;fill:#0F101C;}
	.st22{clip-path:url(#SVGID_2_);fill-rule:evenodd;clip-rule:evenodd;fill:#0F101A;}
	.st23{clip-path:url(#SVGID_2_);fill-rule:evenodd;clip-rule:evenodd;fill:#0E0F19;}
	.st24{clip-path:url(#SVGID_2_);fill-rule:evenodd;clip-rule:evenodd;fill:#0E0F18;}
	.st25{clip-path:url(#SVGID_2_);fill-rule:evenodd;clip-rule:evenodd;fill:#0E0F17;}
	.st26{clip-path:url(#SVGID_2_);fill-rule:evenodd;clip-rule:evenodd;fill:#0E0E16;}
	.st27{clip-path:url(#SVGID_2_);fill-rule:evenodd;clip-rule:evenodd;fill:#0D0E15;}
	.st28{clip-path:url(#SVGID_2_);fill-rule:evenodd;clip-rule:evenodd;fill:#0D0E14;}
	.st29{clip-path:url(#SVGID_2_);fill-rule:evenodd;clip-rule:evenodd;fill:#0D0D13;}
	.st30{clip-path:url(#SVGID_2_);fill-rule:evenodd;clip-rule:evenodd;fill:#0C0D12;}
	.st31{clip-path:url(#SVGID_2_);fill-rule:evenodd;clip-rule:evenodd;fill:#0C0C11;}
	.st32{clip-path:url(#SVGID_2_);fill-rule:evenodd;clip-rule:evenodd;fill:#0C0C10;}
	.st33{clip-path:url(#SVGID_2_);fill-rule:evenodd;clip-rule:evenodd;fill:#0B0C0F;}
	.st34{clip-path:url(#SVGID_2_);fill-rule:evenodd;clip-rule:evenodd;fill:#0B0B0E;}
	.st35{clip-path:url(#SVGID_2_);fill-rule:evenodd;clip-rule:evenodd;fill:#0B0B0D;}
	.st36{clip-path:url(#SVGID_2_);fill-rule:evenodd;clip-rule:evenodd;fill:#0B0B0C;}
	.st37{clip-path:url(#SVGID_2_);fill-rule:evenodd;clip-rule:evenodd;fill:#0A0A0B;}
	.st38{clip-path:url(#SVGID_2_);fill-rule:evenodd;clip-rule:evenodd;fill:#0A0A0A;}
	.st39{fill:none;stroke:#161616;stroke-width:3;stroke-miterlimit:10;}
	.st40{display:inline;fill:#161616;}
	.st41{display:inline;fill:#2A3448;}
	.st42{fill:#828282;}
	.st43{fill:#383850;}
	.st44{fill:#191919;}
	.st45{fill:#070707;}
</style>
<g id="check_x5F_notepad_1_" class="st0">
	<g id="Base_33_" class="st1">
		<path class="st2" d="M125.6,9.8H42.7c-1.4,0-2.4,1.1-2.4,2.4v103.6c0,1.3,1.1,2.4,2.4,2.4h82.8c1.4,0,2.4-1.1,2.4-2.4V12.2
			C128,10.9,126.9,9.8,125.6,9.8z M59.8,14.7h49.9v8.5H59.8V14.7z M120.7,112.1H47.6V25.6h73.1V112.1z"/>
	</g>
	<g id="writing_1_" class="st1">
		<g id="wrting_xA0_Image_1_">
		</g>
	</g>
	<g id="verticalline_1_" class="st1">
		<g id="vertical_x5F_line">
			<rect x="65.9" y="25.6" class="st2" width="1.2" height="86.5"/>
		</g>
		<g id="vertical_x5F_line_1_">
			<rect x="68.3" y="25.6" class="st2" width="1.2" height="86.5"/>
		</g>
	</g>
	<g id="ticker_5_" class="st1">
		<g id="ticker_10_">
			<polygon class="st2" points="54.9,56.1 51.3,52.4 53.7,61 63.4,50 			"/>
		</g>
		<g id="ticker_8_">
			<polygon class="st2" points="54.9,76.8 51.3,73.1 53.7,81.7 63.4,70.7 			"/>
		</g>
		<g id="ticker_6_">
			<polygon class="st2" points="54.9,95.1 51.3,91.4 53.7,99.9 63.4,89 			"/>
		</g>
	</g>
	<g id="lines_6_" class="st1">
		<g id="lines">
			<path class="st2" d="M47.6,45.1v1.2h73.1v-1.2H47.6z M47.6,65.8h73.1v-1.2H47.6V65.8z M47.6,85.3h73.1v-1.2H47.6V85.3z
				 M47.6,102.4h73.1v-1.2H47.6V102.4z"/>
		</g>
	</g>
	<g id="cliper_1_" class="st1">
		<g id="clip_5_">
			<path class="st2" d="M109.7,17.1v3.7h2.4v8.5H57.3v-8.5h2.4v-3.7h-6.1c0,0,0,4.3,0,8.5v5.7c0,1.7,1,2.8,2.4,2.8h57.3
				c1.4,0,2.4-1.2,2.4-2.9v-5.6c0-4.3,0-8.5,0-8.5H109.7z"/>
		</g>
	</g>
	<path class="st3" d="M1.3,90h13.6c-1.5,12.9-4,21.4-6.8,21.4S2.8,102.9,1.3,90z"/>
	<path class="st3" d="M18.4,53.1c0,0.1-0.7,5.7-0.7,5.7s-1.9-3.5-0.7-6.4c1-2.3,2-5.2,2.1-8.5c0.3-6.8-4.3-8.1-4.3-7.8
		c1,7.5,1.4,14.3,1.4,24.2H0c0.3-25,3.8-44.8,8.1-44.8c2.3,0,4.3,5.5,5.8,14.3c0,0.3,6.9,6.5,7.3,13.4C21.6,48,18.4,52.9,18.4,53.1z
		"/>
	<g class="st1">
		<g>
			<defs>
				<path id="SVGID_1_" d="M10.9,108.5c-0.8,1.9-1.3,2.6-2.4,2.9c-1.3,0.4-2.6-0.9-3.2-2.9H10.9z"/>
			</defs>
			<clipPath id="SVGID_2_">
				<use xlink:href="#SVGID_1_"  style="overflow:visible;"/>
			</clipPath>
			<path class="st4" d="M5.3,108.5v3.3V108.5z"/>
			<rect x="5.3" y="108.5" class="st4" width="0.2" height="3.3"/>
			<rect x="5.5" y="108.5" class="st5" width="0.2" height="3.3"/>
			<rect x="5.7" y="108.5" class="st6" width="0.2" height="3.3"/>
			<rect x="5.8" y="108.5" class="st7" width="0.2" height="3.3"/>
			<rect x="6" y="108.5" class="st8" width="0.2" height="3.3"/>
			<rect x="6.1" y="108.5" class="st9" width="0.2" height="3.3"/>
			<rect x="6.3" y="108.5" class="st10" width="0.2" height="3.3"/>
			<rect x="6.5" y="108.5" class="st11" width="0.2" height="3.3"/>
			<rect x="6.6" y="108.5" class="st12" width="0.2" height="3.3"/>
			<rect x="6.8" y="108.5" class="st13" width="0.2" height="3.3"/>
			<rect x="6.9" y="108.5" class="st14" width="0.2" height="3.3"/>
			<rect x="7.1" y="108.5" class="st15" width="0.2" height="3.3"/>
			<rect x="7.3" y="108.5" class="st16" width="0.2" height="3.3"/>
			<rect x="7.4" y="108.5" class="st17" width="0.2" height="3.3"/>
			<rect x="7.6" y="108.5" class="st18" width="0.2" height="3.3"/>
			<rect x="7.7" y="108.5" class="st19" width="0.2" height="3.3"/>
			<rect x="7.9" y="108.5" class="st20" width="0.2" height="3.3"/>
			<rect x="8.1" y="108.5" class="st21" width="0.2" height="3.3"/>
			<rect x="8.2" y="108.5" class="st22" width="0.2" height="3.3"/>
			<rect x="8.4" y="108.5" class="st23" width="0.2" height="3.3"/>
			<rect x="8.5" y="108.5" class="st24" width="0.2" height="3.3"/>
			<rect x="8.7" y="108.5" class="st25" width="0.2" height="3.3"/>
			<rect x="8.9" y="108.5" class="st26" width="0.2" height="3.3"/>
			<rect x="9" y="108.5" class="st27" width="0.2" height="3.3"/>
			<rect x="9.2" y="108.5" class="st28" width="0.2" height="3.3"/>
			<rect x="9.3" y="108.5" class="st29" width="0.2" height="3.3"/>
			<rect x="9.5" y="108.5" class="st30" width="0.2" height="3.3"/>
			<rect x="9.7" y="108.5" class="st31" width="0.2" height="3.3"/>
			<rect x="9.8" y="108.5" class="st32" width="0.2" height="3.3"/>
			<rect x="10" y="108.5" class="st33" width="0.2" height="3.3"/>
			<rect x="10.1" y="108.5" class="st34" width="0.2" height="3.3"/>
			<rect x="10.3" y="108.5" class="st35" width="0.2" height="3.3"/>
			<rect x="10.5" y="108.5" class="st36" width="0.2" height="3.3"/>
			<rect x="10.6" y="108.5" class="st37" width="0.2" height="3.3"/>
			<rect x="10.8" y="108.5" class="st38" width="0.2" height="3.3"/>
			<rect x="10.9" y="108.5" class="st38" width="0" height="3.3"/>
		</g>
	</g>
</g>
<g id="rounded_x5F_hinges_x5F_notepad_1_">
	<g id="Base_27_">
		<path class="st2" d="M90,8.7H4.3c-1.6,0-3,1.3-3,2.9v113.5c0,1.6,1.3,2.9,3,2.9H90c1.6,0,3-1.3,3-2.9V11.6C93,10,91.6,8.7,90,8.7z
			 M88.6,123.6H5.7V13.1h82.9V123.6z"/>
	</g>
	<g id="lines_5_">
		<g id="lines_2_">
			<path class="st2" d="M5.7,38.8v1.5h82.9v-1.5H5.7z M5.7,47.9h82.9v-1.5H5.7V47.9z M5.7,55.5h82.9V54H5.7V55.5z M5.7,63.1h82.9
				v-1.5H5.7V63.1z M5.7,70.6h82.9v-1.5H5.7V70.6z M5.7,78.2h82.9v-1.5H5.7V78.2z M5.7,85.8h82.9v-1.5H5.7V85.8z M5.7,93.4h82.9
				v-1.5H5.7V93.4z M5.7,100.9h82.9v-1.5H5.7V100.9z M5.7,108.5h82.9V107H5.7V108.5z M5.7,116.1h82.9v-1.5H5.7V116.1z"/>
		</g>
		<g id="line">
			<rect x="21.7" y="27.6" class="st2" width="1.5" height="93.1"/>
		</g>
	</g>
	<g id="holes_1_">
		<g id="hinges_2_">
			<g id="hinges_1_">
				<path class="st2" d="M77,8.7c0,0,0.3-8.8-5.8-8.7c-5.7,0.1-5.8,7.3-5.8,8.7c0,2.3,0.6,6.5,2.2,9.2c-0.5,0.7-0.8,1.5-0.8,2.4
					c0,2.4,2,4.4,4.4,4.4c2.4,0,4.4-2,4.4-4.4c0-2.4-2-4.4-4.4-4.4c-0.5,0-0.9,0.1-1.3,0.2c0-0.1-0.1-0.1-0.1-0.2
					c-1.2-2.1-1.5-5.1-1.5-7.3c0-1.7,0.4-5.9,2.9-5.8C75.1,3,74,8.7,74,8.7H77z M55.1,0c-5.7,0.1-5.8,7.3-5.8,8.7
					c0,2.3,0.6,6.5,2.2,9.2c-0.5,0.7-0.8,1.5-0.8,2.4c0,2.4,2,4.4,4.4,4.4c2.4,0,4.4-2,4.4-4.4c0-2.4-2-4.4-4.4-4.4
					c-0.5,0-0.9,0.1-1.3,0.2c0-0.1-0.1-0.1-0.1-0.2c-1.2-2.1-1.5-5.1-1.5-7.3c0-1.7,0.4-5.9,2.9-5.8C59.1,3,58,8.7,58,8.7H61
					C61,8.7,61.3-0.1,55.1,0z M39.1,0c-5.7,0.1-5.8,7.3-5.8,8.7c0,2.3,0.6,6.5,2.2,9.2c-0.5,0.7-0.8,1.5-0.8,2.4
					c0,2.4,2,4.4,4.4,4.4c2.4,0,4.4-2,4.4-4.4c0-2.4-2-4.4-4.4-4.4c-0.5,0-0.9,0.1-1.3,0.2c0-0.1-0.1-0.1-0.1-0.2
					c-1.2-2.1-1.5-5.1-1.5-7.3c0-1.7,0.4-5.9,2.9-5.8C43.1,3,42,8.7,42,8.7H45C45,8.7,45.3-0.1,39.1,0z M23.1,0
					c-5.7,0.1-5.8,7.3-5.8,8.7c0,2.3,0.6,6.5,2.2,9.2c-0.5,0.7-0.8,1.5-0.8,2.4c0,2.4,2,4.4,4.4,4.4c2.4,0,4.4-2,4.4-4.4
					c0-2.4-2-4.4-4.4-4.4c-0.5,0-0.9,0.1-1.3,0.2c0-0.1-0.1-0.1-0.1-0.2c-1.2-2.1-1.5-5.1-1.5-7.3c0-1.7,0.4-5.9,2.9-5.8
					C27.1,3,26,8.7,26,8.7H29C29,8.7,29.3-0.1,23.1,0z"/>
			</g>
		</g>
	</g>
	<g id="pencil_3_">
		<g id="Base_3_">
			<g>
				<polygon class="st2" points="55.1,98.9 55.3,98.5 55.2,98.9 				"/>
			</g>
			<g>
				<polygon class="st2" points="117.7,50.9 71.1,96 60.2,98 57,94.7 61.1,85.6 107.6,41 				"/>
			</g>
		</g>
		<g id="rubber">
			<g>
				<path class="st2" d="M125,34.9c-4-3.8-9-2-9-2l-5.2,5l9.8,10.1l4.4-4.4C125,43.6,128.8,38.6,125,34.9z"/>
			</g>
		</g>
		<g id="tip">
			<polygon class="st2" points="59.6,98.5 54.5,99.4 54.7,99 56.4,95.2 			"/>
		</g>
	</g>
</g>
<g id="white_x5F_notepad_1_" class="st0">
	<g id="Base_21_" class="st1">
		<path class="st39" d="M126.7,4.1H39.1c-0.7,0-1.3,0.6-1.3,1.4v115.9c0,0.7,0.6,1.4,1.3,1.4h87.6c0.7,0,1.3-0.6,1.3-1.4V5.5
			C128,4.7,127.4,4.1,126.7,4.1z"/>
	</g>
	<path class="st40" d="M47.2,16.3v1.3h72.8v-1.3H47.2z M47.2,23h72.8v-1.3H47.2V23z M47.2,33.8h72.8v-1.3H47.2V33.8z M47.2,39.2
		h72.8v-1.3H47.2V39.2z M47.2,48.6h72.8v-1.3H47.2V48.6z M47.2,54h72.8v-1.3H47.2V54z M47.2,63.4h72.8v-1.3H47.2V63.4z M47.2,68.8
		h72.8v-1.3H47.2V68.8z M47.2,78.2h72.8v-1.3H47.2V78.2z M47.2,83.6h72.8v-1.3H47.2V83.6z M47.2,93.1h72.8v-1.3H47.2V93.1z
		 M47.2,98.4h72.8v-1.3H47.2V98.4z M47.2,107.9h72.8v-1.3H47.2V107.9z M47.2,113.3h72.8v-1.3H47.2V113.3z"/>
	<path id="ring_1_" class="st41" d="M42.5,16.1c0.6,0,1.2-0.5,1.2-1.1c0-0.6-0.5-1.1-1.2-1.1c-0.6,0-1.2,0.5-1.2,1.1
		C41.3,15.6,41.8,16.1,42.5,16.1z M42.5,17.5c-0.6,0-1.2,0.5-1.2,1.1c0,0.6,0.5,1.1,1.2,1.1c0.6,0,1.2-0.5,1.2-1.1
		C43.6,18,43.1,17.5,42.5,17.5z M42.2,14.7v-0.4h-8.5v1.5h8.5V14.7z M33.7,17.9v1.5h8.5v-0.7v-0.7H33.7z M42.5,28.6
		c-0.6,0-1.2,0.5-1.2,1.1s0.5,1.1,1.2,1.1c0.6,0,1.2-0.5,1.2-1.1S43.1,28.6,42.5,28.6z M42.5,32.3c-0.6,0-1.2,0.5-1.2,1.1
		c0,0.6,0.5,1.1,1.2,1.1c0.6,0,1.2-0.5,1.2-1.1C43.6,32.8,43.1,32.3,42.5,32.3z M33.7,29.1v1.5h8.5v-1.1v-0.4H33.7z M33.7,32.7v1.5
		h8.5v-0.4v-1.1H33.7z M42.5,44.1c-0.6,0-1.2,0.5-1.2,1.1s0.5,1.1,1.2,1.1c0.6,0,1.2-0.5,1.2-1.1S43.1,44.1,42.5,44.1z M42.5,47.8
		c-0.6,0-1.2,0.5-1.2,1.1c0,0.6,0.5,1.1,1.2,1.1c0.6,0,1.2-0.5,1.2-1.1C43.6,48.3,43.1,47.8,42.5,47.8z M33.7,44.5V46h8.5v-1.1v-0.4
		H33.7z M33.7,48.2v1.5h8.5v-0.4v-1.1H33.7z M42.5,59.6c-0.6,0-1.2,0.5-1.2,1.1c0,0.6,0.5,1.1,1.2,1.1c0.6,0,1.2-0.5,1.2-1.1
		C43.6,60.1,43.1,59.6,42.5,59.6z M42.5,63.3c-0.6,0-1.2,0.5-1.2,1.1c0,0.6,0.5,1.1,1.2,1.1c0.6,0,1.2-0.5,1.2-1.1
		C43.6,63.8,43.1,63.3,42.5,63.3z M33.7,60v1.5h8.5v-1.1V60H33.7z M33.7,63.6v1.5h8.5v-0.4v-1.1H33.7z M42.5,77.3
		c-0.6,0-1.2,0.5-1.2,1.1c0,0.6,0.5,1.1,1.2,1.1c0.6,0,1.2-0.5,1.2-1.1C43.6,77.8,43.1,77.3,42.5,77.3z M42.5,81
		c-0.6,0-1.2,0.5-1.2,1.1c0,0.6,0.5,1.1,1.2,1.1c0.6,0,1.2-0.5,1.2-1.1C43.6,81.5,43.1,81,42.5,81z M33.7,77.7v1.5h8.5v-1.1v-0.4
		H33.7z M33.7,81.3v1.5h8.5v-0.4v-1.1H33.7z M42.5,92.8c-0.6,0-1.2,0.5-1.2,1.1c0,0.6,0.5,1.1,1.2,1.1c0.6,0,1.2-0.5,1.2-1.1
		C43.6,93.3,43.1,92.8,42.5,92.8z M42.5,96.5c-0.6,0-1.2,0.5-1.2,1.1c0,0.6,0.5,1.1,1.2,1.1c0.6,0,1.2-0.5,1.2-1.1
		C43.6,97,43.1,96.5,42.5,96.5z M33.7,93.1v1.5h8.5v-1.1v-0.4H33.7z M33.7,96.8v1.5h8.5v-0.4v-1.1H33.7z M42.5,109
		c-0.6,0-1.2,0.5-1.2,1.1c0,0.6,0.5,1.1,1.2,1.1c0.6,0,1.2-0.5,1.2-1.1C43.6,109.5,43.1,109,42.5,109z M42.5,112.7
		c-0.6,0-1.2,0.5-1.2,1.1c0,0.6,0.5,1.1,1.2,1.1c0.6,0,1.2-0.5,1.2-1.1C43.6,113.2,43.1,112.7,42.5,112.7z M33.7,109.5v1.5h8.5v-1.1
		v-0.4H33.7z M33.7,113.1v1.5h8.5v-0.4v-1.1H33.7z"/>
	<g id="pencil_2_" class="st1">
		<g id="Base_5_">
			<polygon class="st2" points="13.5,29.7 13.5,107.4 13.3,107.9 0.2,107.9 0,107.4 0,29.7 			"/>
		</g>
		<g id="bottom">
			<polygon class="st42" points="13.3,107.9 8.8,118.7 4.4,118.7 0.2,107.9 			"/>
		</g>
		<g id="back_1_">
			<g>
				<path class="st2" d="M6.7,10.9c-6.6,0-6.7,4.8-6.7,4.8v8.7h13.5v-8.7C13.5,15.7,13.2,10.9,6.7,10.9z"/>
			</g>
		</g>
		<g id="tip_1_">
			<polygon class="st43" points="8.8,118.7 6.7,123.9 4.4,118.7 			"/>
		</g>
		<g id="back_2_">
			<g>
				<rect y="24.3" class="st42" width="13.5" height="5.4"/>
			</g>
		</g>
	</g>
</g>
<g id="lightbrown_x5F_notepad_1_" class="st0">
	<g id="Base_6_" class="st1">
		<path class="st2" d="M124,15.2H4c-2.2,0-4,1.8-4,4v89.7c0,2.2,1.8,4,4,4H124c2.2,0,4-1.8,4-4V19.1C128,16.9,126.2,15.2,124,15.2z
			 M124,106.3c0,1.4-1.2,2.6-2.6,2.6H6.6c-1.5,0-2.6-1.2-2.6-2.6V21.7c0-1.4,1.2-2.6,2.6-2.6h114.8c1.5,0,2.6,1.2,2.6,2.6V106.3z"/>
	</g>
	<g id="line_7_" class="st1">
		<g id="line_2_">
			<g>
				<path class="st2" d="M4,93H124v-1.3H4V93z M22.4,28.4H9.2v13.2h13.2V28.4z M21.1,40.2H10.6V29.7h10.6V40.2z M81.8,28.4H68.6
					v13.2h13.2V28.4z M80.5,40.2H69.9V29.7h10.6V40.2z M4,85.1H124v-1.3H4V85.1z M4,100.9H124v-1.3H4V100.9z M4,53.4H124v-1.3H4
					V53.4z M4,44.2v1.3H124v-1.3H4z M4,61.4H124V60H4V61.4z M4,69.3H124V68H4V69.3z M4,77.2H124v-1.3H4V77.2z"/>
			</g>
		</g>
		<g id="ticker_4_">
			<g>
				<polygon class="st2" points="15.8,36.3 13.2,33.6 11.9,35 15.8,38.9 23.8,29.7 				"/>
			</g>
		</g>
	</g>
	<g id="binder" class="st1">
		<g>
			<rect x="63.3" y="19.1" class="st2" width="1.3" height="89.7"/>
		</g>
	</g>
	<g id="ribbon_2_" class="st1">
		<g id="ribbon_1_">
			<g>
				<rect x="114.8" y="19.1" class="st2" width="4" height="89.7"/>
			</g>
		</g>
	</g>
</g>
<g id="black_x5F_notepad_1_" class="st0">
	<g id="board" class="st1">
		<path class="st2" d="M83.2,13.5c-0.5,0.2-1,0.4-1.6,0.4c-0.6,0-1.1-0.1-1.6-0.4H83.2z"/>
		<path class="st2" d="M123.9,13.5h-11.2v-2c0-1.3-1-2.3-2.4-2.3h-20c0,0-0.5-9.2-8.2-9.2c-9-0.1-9.4,9.2-9.4,9.2H55.1
			c-1.3,0-2.4,1-2.4,2.3v2H40.5c-1.8,0-3.2,1.5-3.2,3.4v105.2c0,1.9,1.4,3.4,3.2,3.4h83.4c1.7,0,3.2-1.5,3.2-3.4V16.9
			C127.1,15,125.7,13.5,123.9,13.5z M81.6,4.6c2.3,0,4.1,2.1,4.1,4.6c0,1.9-1,3.6-2.5,4.3c-0.5,0.2-1,0.4-1.6,0.4
			c-0.6,0-1.1-0.1-1.6-0.4c-1.5-0.7-2.5-2.3-2.5-4.3C77.5,6.7,79.3,4.6,81.6,4.6z M118,115.1c0,0.6-0.5,1.2-1.2,1.2H47.6
			c-0.7,0-1.2-0.5-1.2-1.2V22.5c0-0.6,0.5-1.2,1.2-1.2h5.1V22c0,1.3,1.1,2.3,2.4,2.3h55.2c1.3,0,2.4-1,2.4-2.3v-0.6h4.1
			c0.6,0,1.2,0.5,1.2,1.2V115.1z"/>
	</g>
	<g id="lines_4_" class="st1">
		<path class="st2" d="M52.8,39.8v3.5h57.6v-3.5H52.8z M52.8,56h57.6v-3.5H52.8V56z M52.8,67.5h57.6v-3.5H52.8V67.5z M52.8,80.3
			h57.6v-3.5H52.8V80.3z M52.8,93h57.6v-3.5H52.8V93z"/>
	</g>
	<g id="pen_4_" class="st1">
		<g id="Base_9_">
			<g>
				<path class="st2" d="M7.4,29.1V115h10.4V29.1H7.4z M4.2,34.3c-1.8,0-3.2,1.5-3.2,3.3v26c0,1.8,1.5,3.3,3.2,3.3
					c1.8,0,3.2-1.5,3.2-3.3v-26C7.4,35.8,6,34.3,4.2,34.3z"/>
			</g>
		</g>
		<g id="button_1_">
			<g>
				<path class="st2" d="M12.6,21.3c-1.5,0-3.9,2.4-3.9,3.9v4.4h7.9v-4.3C16.6,23.8,14.1,21.3,12.6,21.3z"/>
			</g>
		</g>
		<g id="pointer_3_">
			<g>
				<polygon class="st2" points="7.6,114.9 12.6,128 17.8,115 				"/>
			</g>
		</g>
	</g>
</g>
<g id="orange_x5F_notepad_1_" class="st0">
	<g id="Base_2_" class="st1">
		<path class="st2" d="M121.9,2.6H35.4c-1.7,0-3.1,1.4-3.1,3.1L31,122.2c0,1.7,1.4,3.1,3.1,3.1l81.8,0c0,0,0-38.7,0-56.2
			c0-1.7,9.1-7.2,9.1-8.2c0-1.1,0.1-1.7,0.1-1.7V5.8C125,4,123.6,2.6,121.9,2.6z M111.9,113.9c0,0.6-0.5,1-1,1h-71c-0.6,0-1-0.5-1-1
			V12.8c0-0.6,0.5-1,1-1h71c0.6,0,1,0.5,1,1V113.9z"/>
	</g>
	<g id="contactlist_5_" class="st1">
		<polygon class="st2" points="118.4,70.6 118.4,86.3 125,81.1 125,65.3 		"/>
	</g>
	<g id="contactlist_4_" class="st1">
		<polygon class="st2" points="118.4,89.4 118.4,105.2 125,99.9 125,84.2 		"/>
	</g>
	<g id="contactlist_3_" class="st1">
		<polygon class="st2" points="118.4,108.3 118.4,124.1 125,118.8 125,103.1 		"/>
	</g>
	<g id="rings_2_" class="st1">
		<g id="rings_1_">
			<path class="st44" d="M44.4,36.7c-1.4,0-2.6,0.9-3,2.2H30.6c-1.2,0-2.3,0.7-2.3,1.6c0,0.9,1,1.6,2.3,1.6h11.6
				c0.6,0.6,1.4,1,2.3,1c1.7,0,3.1-1.4,3.1-3.1C47.5,38.1,46.1,36.7,44.4,36.7z M44.4,48.2c-1.4,0-2.5,0.9-3,2.1H30.6
				c-1.2,0-2.3,0.7-2.3,1.6c0,0.9,1,1.6,2.3,1.6h11.5c0.6,0.6,1.4,1,2.3,1c1.7,0,3.1-1.4,3.1-3.1C47.5,49.6,46.1,48.2,44.4,48.2z
				 M44.4,59.7c-1.4,0-2.5,0.9-2.9,2.1H30.6c-1.2,0-2.3,0.7-2.3,1.6c0,0.9,1,1.6,2.3,1.6h11.5c0.6,0.6,1.4,1.1,2.3,1.1
				c1.7,0,3.1-1.4,3.1-3.1C47.5,61.1,46.1,59.7,44.4,59.7z M44.4,71.2c-1.3,0-2.5,0.9-2.9,2H30.6c-1.2,0-2.3,0.7-2.3,1.6
				c0,0.9,1,1.6,2.3,1.6H42c0.6,0.7,1.4,1.1,2.4,1.1c1.7,0,3.1-1.4,3.1-3.1C47.5,72.6,46.1,71.2,44.4,71.2z M44.4,82.7
				c-1.3,0-2.5,0.8-2.9,2H30.6c-1.2,0-2.3,0.7-2.3,1.6c0,0.9,1,1.6,2.3,1.6H42c0.6,0.7,1.4,1.1,2.4,1.1c1.7,0,3.1-1.4,3.1-3.1
				C47.5,84.1,46.1,82.7,44.4,82.7z M44.4,94.2c-1.3,0-2.4,0.8-2.9,2H30.6c-1.2,0-2.3,0.7-2.3,1.6c0,0.9,1,1.6,2.3,1.6H42
				c0.6,0.7,1.4,1.2,2.4,1.2c1.7,0,3.1-1.4,3.1-3.1C47.5,95.6,46.1,94.2,44.4,94.2z M30.6,30.6h11.6c0.6,0.6,1.4,0.9,2.2,0.9
				c1.7,0,3.1-1.4,3.1-3.1c0-1.7-1.4-3.1-3.1-3.1c-1.4,0-2.6,0.9-3,2.2H30.6c-1.2,0-2.3,0.7-2.3,1.6C28.3,29.9,29.3,30.6,30.6,30.6z
				"/>
		</g>
	</g>
	<g id="line_6_" class="st1">
		<g id="line_3_">
			<path class="st2" d="M53.2,35.3v3.9h49.6v-3.9H53.2z M53.2,49.6h49.6v-3.9H53.2V49.6z M53.2,60.1h49.6v-3.9H53.2V60.1z
				 M53.2,70.5h49.6v-3.9H53.2V70.5z M53.2,81h49.6v-3.9H53.2V81z M53.2,91.4h49.6v-3.9H53.2V91.4z"/>
		</g>
	</g>
	<g id="pen_3_" class="st1">
		<g id="Base_4_">
			<rect x="3" y="23.5" class="st2" width="10.4" height="86.2"/>
		</g>
		<g id="rubber_1_">
			<path class="st2" d="M8.2,9.1C3.5,9.3,3,15.5,3,17v2.6h10.4l0.1-2.5C13.5,15.5,13.2,8.9,8.2,9.1z"/>
		</g>
		<g id="ruuber_x5F_graper_1_">
			<rect x="3" y="18.3" class="st42" width="10.4" height="7.8"/>
		</g>
		<g id="pointer_1_">
			<polygon class="st42" points="13.4,109.7 10.1,118.8 6.3,118.8 3,109.7 			"/>
		</g>
		<g id="point_1_">
			<polygon class="st45" points="10.1,118.8 8.2,124.1 6.3,118.8 			"/>
		</g>
	</g>
</g>
</svg>
