<?xml version="1.0" encoding="iso-8859-1"?>
<!-- Generator: Adobe Illustrator 24.3.0, SVG Export Plug-In . SVG Version: 6.00 Build 0)  -->
<svg version="1.1" xmlns="http://www.w3.org/2000/svg" xmlns:xlink="http://www.w3.org/1999/xlink" x="0px" y="0px"
	 viewBox="0 0 64 64" style="enable-background:new 0 0 64 64;" xml:space="preserve">
<g id="river-mountain">
	<path style="fill:#231F20;" d="M44.775,22.937c3.451,0,6.258-2.807,6.258-6.257s-2.807-6.257-6.258-6.257s-6.258,2.807-6.258,6.257
		S41.324,22.937,44.775,22.937z M44.775,11.758c2.714,0,4.922,2.208,4.922,4.921s-2.208,4.921-4.922,4.921s-4.922-2.208-4.922-4.921
		S42.061,11.758,44.775,11.758z M57.65,44.525v-3.801h4.348c0.246,0,0.471-0.135,0.588-0.351c0.116-0.217,0.105-0.479-0.03-0.684
		l-2.632-3.999h1.515c0.236,0,0.454-0.125,0.575-0.327c0.12-0.203,0.125-0.454,0.011-0.661l-2.196-4.012h1.609
		c0.244,0,0.469-0.133,0.586-0.347c0.117-0.214,0.109-0.475-0.023-0.681l-5.73-8.961c-0.245-0.384-0.88-0.384-1.125,0l-5.73,8.961
		c-0.132,0.206-0.141,0.467-0.023,0.681c0.117,0.214,0.342,0.347,0.586,0.347h1.609L49.393,34.7
		c-0.113,0.207-0.109,0.459,0.011,0.661c0.12,0.203,0.339,0.327,0.575,0.327h1.515l-2.632,3.999
		c-0.135,0.205-0.146,0.468-0.03,0.684c0.117,0.216,0.342,0.351,0.588,0.351h4.348v3.801h-6.34L29.913,13.085
		c-0.236-0.424-0.932-0.424-1.167,0L11.23,44.525H5.928v1.336h5.694h35.413h7.4h2.546H64v-1.336H57.65z M53.292,35.388
		c0.135-0.205,0.146-0.468,0.03-0.684c-0.116-0.216-0.342-0.351-0.588-0.351h-1.627l2.196-4.012
		c0.113-0.207,0.109-0.459-0.011-0.661c-0.12-0.203-0.339-0.327-0.575-0.327h-1.516l4.51-7.053l4.51,7.053h-1.516
		c-0.236,0-0.454,0.125-0.575,0.327c-0.12,0.203-0.125,0.454-0.011,0.661l2.196,4.012h-1.627c-0.246,0-0.472,0.135-0.588,0.351
		c-0.116,0.217-0.105,0.479,0.03,0.684l2.632,3.999H50.659L53.292,35.388z M55.104,40.723h1.21v3.801h-1.21V40.723z M29.329,14.783
		l4.05,7.27l-1.668,2.583l-1.815-2.911c-0.106-0.17-0.284-0.284-0.483-0.309c-0.2-0.024-0.4,0.04-0.545,0.179l-2.06,1.963
		l-1.487-1.581L29.329,14.783z M24.639,23.201l1.657,1.762c0.122,0.129,0.291,0.205,0.468,0.21c0.182,0.001,0.35-0.061,0.479-0.185
		l1.953-1.861l1.938,3.108c0.121,0.194,0.333,0.312,0.562,0.314c0.002,0,0.004,0,0.005,0c0.227,0,0.438-0.115,0.561-0.305
		l1.854-2.87l11.783,21.15h-33.14L24.639,23.201z M60.788,48.611v1.336H48.21v-1.336H60.788z M46.525,48.611v1.336h-2.96v-1.336
		H46.525z M42.031,49.947H29.453v-1.336h12.579V49.947z M27.768,48.611v1.336h-2.96v-1.336H27.768z M17.223,49.947H4.645v-1.336
		h12.579V49.947z M0,48.611h2.96v1.336H0V48.611z M16.746,52.242h12.579v1.336H16.746V52.242z M12.101,52.242h2.96v1.336h-2.96
		V52.242z M41.591,52.242H64v1.336H41.591V52.242z M30.859,52.242h6.84v1.336h-6.84V52.242z"/>
</g>
<g id="Layer_1">
</g>
</svg>
