<?xml version="1.0" encoding="iso-8859-1"?>
<!-- Generator: Adobe Illustrator 24.3.0, SVG Export Plug-In . SVG Version: 6.00 Build 0)  -->
<svg version="1.1" xmlns="http://www.w3.org/2000/svg" xmlns:xlink="http://www.w3.org/1999/xlink" x="0px" y="0px"
	 viewBox="0 0 64 64" style="enable-background:new 0 0 64 64;" xml:space="preserve">
<g id="rope">
	<path style="fill:#231F20;" d="M58.399,5.602c-7.468-7.468-19.62-7.469-27.088,0l-5.282,5.282L22.26,7.115
		C21.569,6.424,21.569,5.3,22.26,4.609s1.813-0.691,2.505,0l1.282,1.282l1.812-1.812l-1.282-1.282c-1.69-1.69-4.439-1.69-6.13,0
		c-1.689,1.69-1.689,4.44,0.001,6.13l0.763,0.763c-0.572,0.203-1.106,0.516-1.548,0.958c-0.786,0.786-1.223,1.823-1.257,2.931
		c-1.064,0.033-2.118,0.444-2.93,1.254c-0.821,0.821-1.234,1.893-1.258,2.971c-1.077,0.032-2.143,0.43-2.928,1.215
		c-1.689,1.69-1.689,4.44,0.001,6.13l0.236,0.236L5.601,31.31c-7.468,7.469-7.468,19.62,0,27.089C9.335,62.134,14.24,64,19.146,64
		s9.811-1.866,13.544-5.601l5.925-5.925l0.236,0.236c0.818,0.818,1.907,1.27,3.065,1.27c1.158,0,2.246-0.452,3.066-1.27
		c0.81-0.81,1.22-1.865,1.254-2.929c1.107-0.034,2.144-0.47,2.931-1.257c0.788-0.785,1.224-1.824,1.258-2.932
		c1.064-0.033,2.118-0.443,2.928-1.254c0.001,0,0.001,0,0.001,0c1.689-1.69,1.689-4.44-0.001-6.13l-0.236-0.236l5.282-5.282
		C65.867,25.222,65.867,13.071,58.399,5.602z M30.878,56.587c-6.47,6.469-16.995,6.469-23.465,0c-6.469-6.469-6.469-16.995,0-23.465
		l5.925-5.925l2.611,2.611l-5.925,5.925c-5.029,5.03-5.029,13.213,0,18.243c2.515,2.514,5.818,3.772,9.121,3.772
		s6.606-1.258,9.121-3.772l5.926-5.926l2.611,2.611L30.878,56.587z M27.957,41.816l-5.926,5.926c-1.592,1.589-4.18,1.589-5.772,0
		c-1.591-1.592-1.591-4.181,0-5.773l5.925-5.925L27.957,41.816z M14.448,40.156c-2.591,2.591-2.591,6.807,0,9.398
		c1.295,1.295,2.997,1.942,4.698,1.942c1.701,0,3.403-0.647,4.698-1.942l5.926-5.926l2.611,2.611l-5.926,5.926
		c-4.03,4.03-10.587,4.03-14.618,0c-4.03-4.03-4.03-10.589,0-14.619l5.925-5.925l2.611,2.611L14.448,40.156z M43.168,50.898
		c-0.668,0.668-1.835,0.668-2.505,0l-27.56-27.561c-0.691-0.691-0.691-1.815,0-2.506c0.334-0.334,0.779-0.519,1.252-0.519
		c0.256,0,0.498,0.063,0.724,0.165c0.124,0.166,0.245,0.334,0.396,0.485l27.561,27.561c0.149,0.149,0.315,0.271,0.481,0.395
		C43.813,49.571,43.704,50.362,43.168,50.898z M47.355,46.711c-0.001,0-0.001,0-0.001,0c-0.522,0.521-1.342,0.622-1.997,0.329
		c-0.119-0.157-0.233-0.317-0.376-0.46L17.421,19.019c-0.144-0.144-0.308-0.26-0.47-0.378c-0.305-0.656-0.203-1.455,0.337-1.996
		c0.346-0.344,0.8-0.517,1.254-0.517c0.248,0,0.492,0.063,0.723,0.166c0.124,0.166,0.248,0.334,0.397,0.483l27.561,27.561
		c0.151,0.151,0.319,0.272,0.486,0.396c0.102,0.226,0.165,0.469,0.165,0.724C47.874,45.932,47.69,46.377,47.355,46.711z
		 M51.542,42.526c-0.535,0.533-1.325,0.645-1.978,0.35c-0.124-0.166-0.247-0.333-0.397-0.482L21.606,14.833
		c-0.152-0.152-0.32-0.273-0.487-0.398c-0.102-0.226-0.164-0.468-0.164-0.722c0-0.473,0.184-0.919,0.519-1.253
		c0.335-0.334,0.78-0.519,1.253-0.519c0.473,0,0.918,0.185,1.253,0.519L51.54,40.021C52.231,40.712,52.231,41.834,51.542,42.526z
		 M44.271,29.127l5.282-5.282c2.591-2.591,2.591-6.807,0-9.398c-2.591-2.591-6.806-2.589-9.397,0l-5.282,5.282l-2.611-2.611
		l5.282-5.282c2.015-2.015,4.662-3.022,7.309-3.022s5.294,1.007,7.309,3.022c4.03,4.03,4.03,10.588,0,14.619l-5.282,5.282
		L44.271,29.127z M36.686,21.542l5.282-5.282c0.796-0.796,1.841-1.193,2.887-1.193c1.045,0,2.09,0.397,2.886,1.193
		c1.591,1.592,1.591,4.181,0,5.773l-5.282,5.282L36.686,21.542z M51.305,36.16l-2.611-2.611l5.282-5.282
		c5.029-5.03,5.029-13.215,0-18.243c-5.03-5.029-13.214-5.029-18.243,0l-5.282,5.282l-2.611-2.611l5.282-5.282
		c3.235-3.234,7.483-4.851,11.732-4.851s8.498,1.617,11.732,4.851c6.469,6.469,6.469,16.995,0,23.465L51.305,36.16z"/>
</g>
<g id="Layer_1">
</g>
</svg>
