<?xml version="1.0" encoding="iso-8859-1"?>
<!-- Generator: Adobe Illustrator 24.3.0, SVG Export Plug-In . SVG Version: 6.00 Build 0)  -->
<svg version="1.1" xmlns="http://www.w3.org/2000/svg" xmlns:xlink="http://www.w3.org/1999/xlink" x="0px" y="0px"
	 viewBox="0 0 64 64" style="enable-background:new 0 0 64 64;" xml:space="preserve">
<g id="spider">
	<path style="fill:#231F20;" d="M44.668,45.612l8.484,7.083l1.049-1.256l-8.683-7.25c-0.129-0.108-0.289-0.174-0.457-0.187
		l-6.772-0.556l-0.041-1.725l7.087-1.481c0.154-0.032,0.297-0.108,0.408-0.219l8.391-8.296l-1.151-1.164l-8.22,8.126l-6.026,1.259
		c2.519-2.701,4.162-6.779,4.162-10.514c0-5.98-8.574-8.717-10.081-9.152V0h-1.637v20.281c-1.507,0.435-10.081,3.172-10.081,9.152
		c0,3.734,1.643,7.813,4.162,10.514l-6.027-1.259l-8.219-8.126l-1.151,1.164l8.391,8.296c0.112,0.111,0.254,0.187,0.408,0.219
		l7.088,1.481l-0.041,1.725l-6.771,0.556c-0.168,0.014-0.328,0.079-0.458,0.187l-8.684,7.25l1.049,1.256l8.484-7.083l6.34-0.52
		l-0.042,1.784l-8.5,6.008c-0.198,0.14-0.324,0.36-0.343,0.602l-0.841,10.381L17.577,64L18.388,54l7.195-5.086l-0.005,0.193
		c-0.002,0.071,0.006,0.142,0.022,0.211c0.179,0.743,0.448,1.438,0.798,2.065c0.036,0.065,0.081,0.125,0.133,0.177
		c0.489,0.493,0.993,0.904,1.51,1.251c0.063,0.701,0.26,1.354,0.554,1.929c-0.287,0.415-0.515,0.938-0.672,1.575
		c-0.365,1.52,0.424,3.498,0.586,3.879l1.507-0.64c-0.305-0.717-0.69-2.07-0.502-2.852c0.056-0.226,0.118-0.402,0.18-0.557
		c0.652,0.551,1.446,0.879,2.306,0.879c0.86,0,1.654-0.328,2.306-0.879c0.062,0.154,0.124,0.328,0.179,0.553
		c0.189,0.786-0.197,2.138-0.502,2.856l1.507,0.64c0.162-0.381,0.952-2.359,0.585-3.883c-0.156-0.634-0.384-1.156-0.671-1.571
		c0.302-0.59,0.5-1.263,0.558-1.984c0.916-0.586,1.472-1.161,1.518-1.21c0.046-0.05,0.087-0.104,0.12-0.164
		c0.35-0.627,0.619-1.322,0.798-2.065c0.017-0.069,0.025-0.14,0.023-0.211l-0.005-0.193L45.612,54l0.81,10l1.632-0.132
		l-0.842-10.381c-0.02-0.241-0.145-0.462-0.344-0.602l-8.5-6.008l-0.042-1.784L44.668,45.612z M31.717,21.831h0.566
		c0.979,0.282,8.98,2.734,8.98,7.602c0,3.595-1.792,7.704-4.361,10.029l-0.019-0.025c-5.653,4.486-9.499,0.282-9.66,0.1l-0.4,0.351
		l0.33-0.371c-2.6-2.315-4.416-6.462-4.416-10.085C22.738,24.565,30.738,22.113,31.717,21.831z M32,55.389
		c-0.897,0-1.669-0.673-2.063-1.648c0.629,0.198,1.273,0.305,1.931,0.305c0.025,0,0.051,0,0.076,0c0.778-0.009,1.5-0.159,2.15-0.379
		C33.711,54.682,32.92,55.389,32,55.389z M36.226,50.488c-0.36,0.345-2.103,1.9-4.313,1.92c-1.468,0-2.833-0.633-4.137-1.919
		c-0.237-0.444-0.424-0.932-0.558-1.453l0.171-7.27c1.008,0.665,2.519,1.372,4.408,1.372c1.413,0,3.038-0.409,4.812-1.515
		l0.175,7.413C36.649,49.557,36.462,50.045,36.226,50.488z"/>
</g>
<g id="Layer_1">
</g>
</svg>
