<?xml version="1.0" encoding="iso-8859-1"?>
<!-- Generator: Adobe Illustrator 24.3.0, SVG Export Plug-In . SVG Version: 6.00 Build 0)  -->
<svg version="1.1" xmlns="http://www.w3.org/2000/svg" xmlns:xlink="http://www.w3.org/1999/xlink" x="0px" y="0px"
	 viewBox="0 0 64 64" style="enable-background:new 0 0 64 64;" xml:space="preserve">
<g id="sun-hot-reflection">
	<path style="fill:#231F20;" d="M4.874,12.394h1.628v50.213H4.874V12.394z M24.768,14.318c0-4.781,3.889-8.671,8.67-8.671
		s8.67,3.889,8.67,8.671c0,4.78-3.889,8.67-8.67,8.67S24.768,19.098,24.768,14.318z M26.397,14.318c0,3.883,3.159,7.042,7.042,7.042
		s7.042-3.159,7.042-7.042s-3.159-7.042-7.042-7.042S26.397,10.435,26.397,14.318z M34.253,0h-1.628v3.207h1.628V0z M47.757,13.503
		h-3.208v1.628h3.208V13.503z M32.624,28.635h1.628v-3.208h-1.628V28.635z M22.329,13.503h-3.208v1.628h3.208V13.503z M44.138,4.769
		l-1.151-1.151l-2.268,2.268l1.151,1.151L44.138,4.769z M40.719,22.749l2.268,2.268l1.151-1.151l-2.268-2.268L40.719,22.749z
		 M26.158,22.749l-1.151-1.151l-2.268,2.268l1.151,1.151L26.158,22.749z M26.158,5.886L23.89,3.617l-1.151,1.151l2.268,2.268
		L26.158,5.886z M27.715,48.716l-1.438,0.763l1.332,2.508L12.113,41.042l14.998-12.797l-1.057-1.239L10.259,40.483
		c-0.191,0.163-0.297,0.405-0.285,0.657c0.012,0.251,0.138,0.483,0.343,0.627l16.4,11.583h-2.562v1.628h5.531
		c0.286,0,0.551-0.149,0.698-0.394c0.147-0.245,0.155-0.549,0.021-0.801L27.715,48.716z M57.802,57.011
		c-2.488,4.81-7.964,6.615-10.512,6.898h0C46.738,63.97,46.197,64,45.669,64c-3.773,0-6.896-1.548-8.906-4.451
		c-2.306-3.33-2.819-8.256-1.193-11.459c1.959-3.86,2.302-6.134,1.41-9.359c-0.092-0.334,0.037-0.689,0.322-0.886
		c0.285-0.198,0.663-0.192,0.943,0.012c2.8,2.045,4.2,3.837,4.891,5.203c0.124-1.92-0.638-5.482-4.904-11.623
		c-0.206-0.297-0.192-0.695,0.035-0.976c0.228-0.281,0.614-0.377,0.947-0.239c11.69,4.888,14.365,11.871,14.913,15.657
		c0.198-1.278,0.161-3.467-0.658-7.201c-0.087-0.394,0.13-0.793,0.508-0.936c0.378-0.144,0.804,0.014,1,0.367
		C59.3,45.916,60.251,52.276,57.802,57.011z M48.335,62.049c1.548-1.718,2.247-3.532,2.063-5.396
		c-0.318-3.222-3.133-5.834-4.196-6.713c-1.078,0.897-3.964,3.582-4.281,6.867c-0.182,1.891,0.532,3.724,2.116,5.451
		c0.913,0.132,1.93,0.159,3.074,0.033C47.128,62.288,47.605,62.228,48.335,62.049z M55.832,43.657
		c0.093,2.169-0.221,3.74-0.942,4.695c-0.612,0.81-1.309,0.891-1.443,0.899c-0.25,0.01-0.483-0.081-0.648-0.261
		c-0.166-0.18-0.242-0.425-0.208-0.666c0.052-0.388,1.061-9.105-11.452-15.427c6.205,10.05,2.742,13.084,2.296,13.416
		c-0.27,0.201-0.636,0.215-0.92,0.037c-0.285-0.18-0.43-0.516-0.365-0.846c0-0.002,0.216-1.96-3.153-4.958
		c0.336,2.952-0.472,5.323-1.975,8.283c-1.169,2.304-1.189,6.519,1.08,9.795c0.712,1.029,1.783,2.125,3.342,2.866
		c-0.914-1.544-1.306-3.166-1.141-4.847c0.465-4.765,5.151-8.197,5.35-8.341c0.139-0.1,0.306-0.154,0.477-0.154h0.144
		c0.17,0,0.335,0.053,0.474,0.152c0.196,0.141,4.802,3.486,5.271,8.186c0.16,1.6-0.188,3.149-1.013,4.633
		c1.903-0.869,4.054-2.347,5.351-4.854C58.042,53.002,57.863,48.775,55.832,43.657z"/>
</g>
<g id="Layer_1">
</g>
</svg>
