<?xml version="1.0" encoding="iso-8859-1"?>
<!-- Generator: Adobe Illustrator 24.3.0, SVG Export Plug-In . SVG Version: 6.00 Build 0)  -->
<svg version="1.1" xmlns="http://www.w3.org/2000/svg" xmlns:xlink="http://www.w3.org/1999/xlink" x="0px" y="0px"
	 viewBox="0 0 64 64" style="enable-background:new 0 0 64 64;" xml:space="preserve">
<g id="tree-mark">
	<path style="fill:#231F20;" d="M35.947,42.292l-2.45,2.45l2.45,2.45l-1.264,1.264l-2.449-2.45l-2.449,2.45l-1.264-1.264l2.45-2.45
		l-2.45-2.45l1.264-1.264l2.449,2.45l2.449-2.45L35.947,42.292z M44.84,59.737c0.254,0.254,0.331,0.634,0.196,0.967
		c-0.134,0.333-0.455,0.552-0.813,0.559l-6.121,0.105l-0.278,1.68c-0.046,0.284-0.228,0.528-0.485,0.655
		c-0.257,0.127-0.562,0.123-0.816-0.012c-1.142-0.608-4.323-2.254-5.308-2.569c-0.405,0.003-1.719,1.222-2.67,2.515
		C28.375,63.868,28.106,64,27.826,64c-0.069,0-0.139-0.008-0.208-0.024c-0.349-0.083-0.614-0.368-0.674-0.722
		c-0.096-0.576-0.305-1.49-0.509-1.972c-0.82-0.206-3.763-0.182-6.208-0.021c-0.361,0.029-0.719-0.184-0.873-0.523
		c-0.154-0.339-0.081-0.738,0.182-1.001l1.964-1.964c1.78-1.781,2.885-3.418,2.885-6.071v-2.028l-4.459-7
		c-0.208-0.326-0.182-0.75,0.065-1.049c0.247-0.299,0.658-0.404,1.017-0.263l3.378,1.33v-6l-4.925-6.409
		c-0.157-0.204-0.218-0.467-0.168-0.72c0.051-0.253,0.208-0.471,0.431-0.6l2.748-1.58c0.348-0.202,0.791-0.144,1.078,0.143
		l5.476,5.483l-0.553-12.638c-0.01-0.244,0.079-0.481,0.247-0.657c0.168-0.176,0.402-0.276,0.646-0.276h4.219
		c0.494,0,0.894,0.4,0.894,0.894V32.57l6.19-5.779c0.174-0.162,0.408-0.245,0.642-0.24c0.238,0.009,0.463,0.112,0.624,0.286
		l2.37,2.561c0.311,0.336,0.318,0.853,0.015,1.197l-4.328,4.927v15.286c0,2.631,1.025,5.104,2.885,6.964L44.84,59.737z
		 M42.086,59.511l-0.474-0.474c-2.198-2.198-3.408-5.12-3.408-8.228V35.185c0-0.217,0.079-0.427,0.223-0.59l4.018-4.574
		l-1.213-1.311l-7.037,6.57c-0.261,0.244-0.641,0.308-0.966,0.166c-0.326-0.142-0.538-0.463-0.538-0.82V21.226h-2.391l0.613,14.004
		c0.016,0.369-0.196,0.709-0.533,0.858c-0.335,0.148-0.731,0.074-0.992-0.187l-6.617-6.626l-1.269,0.73l4.488,5.839
		c0.12,0.156,0.185,0.348,0.185,0.545v7.616c0,0.296-0.147,0.572-0.391,0.739c-0.244,0.167-0.555,0.201-0.83,0.093l-2.041-0.803
		l3.122,4.901c0.091,0.144,0.14,0.31,0.14,0.48v2.288c0,3.259-1.362,5.289-3.408,7.334l-0.32,0.321
		c4.851-0.162,5.228,0.473,5.442,0.834c0.153,0.259,0.286,0.603,0.399,0.961c0.862-0.915,1.966-1.809,2.985-1.809
		c0.166,0,0.329,0.024,0.489,0.075c0.935,0.298,3.144,1.412,4.505,2.117l0.197-1.195c0.07-0.426,0.435-0.741,0.866-0.748
		L42.086,59.511z M58.75,22.896c-0.443-3.648-2.279-6.906-5.171-9.173c-2.892-2.267-6.494-3.271-10.142-2.83
		c-0.892,0.108-1.776,0.307-2.641,0.593c-0.565-3.398-2.354-6.418-5.082-8.556c-2.892-2.267-6.491-3.273-10.142-2.83
		c-4.823,0.584-8.947,3.651-10.912,8.065c-0.364-0.013-0.717,0.003-1.062,0.045c-3.912,0.474-6.709,4.042-6.235,7.955
		c0.144,1.181,0.573,2.29,1.254,3.252c-2.55,2.346-3.808,5.719-3.387,9.193c0.713,5.873,6.064,10.075,11.924,9.394h4.436V36.22H17.1
		c-0.036,0-0.072,0.002-0.107,0.007c-4.921,0.597-9.393-2.917-9.989-7.828c-0.381-3.147,0.891-6.196,3.405-8.156
		c0.196-0.154,0.32-0.383,0.341-0.631c0.02-0.249-0.065-0.495-0.234-0.679c-0.767-0.832-1.244-1.863-1.379-2.979
		c-0.356-2.934,1.741-5.61,4.675-5.966c0.418-0.051,0.859-0.048,1.312,0.009c0.39,0.05,0.795-0.181,0.943-0.563
		c1.606-4.129,5.33-7.024,9.719-7.556c3.176-0.387,6.308,0.49,8.825,2.462c2.516,1.972,4.114,4.806,4.498,7.98
		c0.01,0.086,0.015,0.172,0.019,0.258l0.014,0.226c0.024,0.286,0.183,0.545,0.429,0.693c0.246,0.149,0.548,0.169,0.813,0.057
		c1.058-0.452,2.157-0.749,3.267-0.884c3.173-0.386,6.308,0.489,8.825,2.462c2.516,1.973,4.114,4.806,4.498,7.981
		c0.385,3.174-0.489,6.308-2.461,8.824c-1.972,2.516-4.806,4.114-7.903,4.493l-3.703,0.123l0.059,1.787l3.781-0.13
		c3.648-0.442,6.906-2.278,9.173-5.17C58.187,30.146,59.191,26.544,58.75,22.896z"/>
</g>
<g id="Layer_1">
</g>
</svg>
