<?xml version="1.0" encoding="iso-8859-1"?>
<!-- Generator: Adobe Illustrator 24.3.0, SVG Export Plug-In . SVG Version: 6.00 Build 0)  -->
<svg version="1.1" xmlns="http://www.w3.org/2000/svg" xmlns:xlink="http://www.w3.org/1999/xlink" x="0px" y="0px"
	 viewBox="0 0 64 64" style="enable-background:new 0 0 64 64;" xml:space="preserve">
<g id="trees">
	<path style="fill:#231F20;" d="M47.837,52.532v-7.719h5.903c0.263,0,0.505-0.144,0.629-0.376c0.125-0.231,0.112-0.513-0.032-0.732
		l-4.37-6.639h2.912c0.253,0,0.486-0.133,0.615-0.351c0.128-0.217,0.133-0.486,0.012-0.708l-3.631-6.637h3.004
		c0.261,0,0.502-0.142,0.627-0.371c0.126-0.229,0.116-0.509-0.024-0.729l-8.817-13.788c-0.263-0.411-0.943-0.411-1.205,0
		l-3.558,5.564l1.205,0.77l2.956-4.622l7.511,11.746h-2.905c-0.253,0-0.486,0.133-0.615,0.351c-0.128,0.217-0.133,0.486-0.012,0.708
		l3.631,6.637h-3.032c-0.263,0-0.505,0.144-0.629,0.376c-0.125,0.231-0.112,0.513,0.032,0.732l4.37,6.639h-7.093v1.43h1.086v7.719
		h-2.905v-7.891c0.068-0.057,0.13-0.123,0.174-0.204c0.125-0.231,0.112-0.513-0.032-0.732l-5.091-7.735h3.511
		c0.253,0,0.486-0.133,0.615-0.351c0.128-0.217,0.133-0.486,0.012-0.708l-4.227-7.726h3.6c0.261,0,0.502-0.142,0.627-0.371
		c0.126-0.229,0.116-0.509-0.024-0.729L32.603,10.347c-0.263-0.411-0.943-0.411-1.205,0L21.333,26.086
		c-0.14,0.22-0.15,0.499-0.024,0.729c0.125,0.229,0.366,0.371,0.627,0.371h3.6l-4.227,7.726c-0.121,0.221-0.117,0.49,0.012,0.708
		c0.129,0.217,0.362,0.351,0.615,0.351h3.511l-5.091,7.735c-0.145,0.22-0.157,0.501-0.032,0.732
		c0.036,0.066,0.083,0.123,0.135,0.174v7.921h-2.906v-7.719h1.087v-1.43h-7.093l4.369-6.639c0.145-0.22,0.157-0.501,0.032-0.732
		c-0.124-0.231-0.366-0.376-0.629-0.376h-3.032l3.631-6.637c0.121-0.221,0.117-0.49-0.012-0.708
		c-0.129-0.217-0.362-0.351-0.615-0.351h-2.905l7.511-11.746l2.955,4.622l1.205-0.77l-3.557-5.564
		c-0.131-0.206-0.359-0.33-0.603-0.33s-0.471,0.124-0.603,0.33L10.48,28.271c-0.14,0.22-0.15,0.499-0.024,0.729
		c0.125,0.229,0.366,0.371,0.627,0.371h3.004l-3.631,6.637c-0.121,0.221-0.117,0.49,0.012,0.708
		c0.129,0.217,0.362,0.351,0.615,0.351h2.912l-4.369,6.639c-0.145,0.22-0.157,0.501-0.032,0.732
		c0.124,0.231,0.366,0.376,0.629,0.376h5.903v7.719H0v1.43h64v-1.43H47.837z M27.371,35.648c0.145-0.22,0.157-0.501,0.032-0.732
		c-0.124-0.231-0.366-0.376-0.629-0.376h-3.631l4.227-7.726c0.121-0.221,0.117-0.49-0.012-0.708
		c-0.129-0.217-0.362-0.351-0.615-0.351h-3.501L32,12.059l8.758,13.697h-3.501c-0.253,0-0.486,0.133-0.615,0.351
		c-0.128,0.217-0.133,0.486-0.012,0.708l4.227,7.726h-3.631c-0.263,0-0.505,0.144-0.629,0.376c-0.125,0.231-0.112,0.513,0.032,0.732
		l5.091,7.735H22.28L27.371,35.648z M21.89,52.532v-7.719h7.159v7.719H21.89z M30.479,52.406v-7.594h3.043v7.594H30.479z
		 M42.072,52.532h-7.12v-7.719h7.12V52.532z"/>
</g>
<g id="Layer_1">
</g>
</svg>
