<?xml version="1.0" encoding="iso-8859-1"?>
<!-- Generator: Adobe Illustrator 24.3.0, SVG Export Plug-In . SVG Version: 6.00 Build 0)  -->
<svg version="1.1" xmlns="http://www.w3.org/2000/svg" xmlns:xlink="http://www.w3.org/1999/xlink" x="0px" y="0px"
	 viewBox="0 0 64 64" style="enable-background:new 0 0 64 64;" xml:space="preserve">
<g id="water">
	<path style="fill:#231F20;" d="M23.278,10.625V7.672h0.171c0.505,0,0.915-0.409,0.915-0.915V0.915c0-0.506-0.41-0.915-0.915-0.915
		H13.113c-0.505,0-0.915,0.409-0.915,0.915v5.843c0,0.506,0.41,0.915,0.915,0.915h0.171v2.953l-6.012,6.792
		c-1.014,1.147-1.573,2.621-1.573,4.15v8.649c0,0.291,0.139,0.565,0.374,0.738l1.724,1.264L7.392,52.421l-1.397,1.281
		c-0.189,0.173-0.297,0.418-0.297,0.674v4.355c0,0.18,0.054,0.357,0.154,0.507L8.1,62.609c0.17,0.255,0.455,0.407,0.761,0.407h6.274
		l0.425,0.598C15.732,63.856,16.009,64,16.305,64h3.951c0.296,0,0.574-0.144,0.745-0.385l0.425-0.598h6.274
		c0.306,0,0.591-0.153,0.761-0.407l2.248-3.371c0.1-0.15,0.154-0.327,0.154-0.507v-4.355c0-0.256-0.108-0.501-0.297-0.674
		l-1.397-1.281l-0.404-20.203l1.724-1.264c0.235-0.172,0.374-0.447,0.374-0.738v-8.649c0-1.53-0.559-3.004-1.573-4.15L23.278,10.625
		z M14.027,1.829h8.507v4.014h-8.507V1.829z M29.034,58.454l-1.822,2.733h-4.485l2.068-2.91l-1.492-1.059l-3.519,4.953h-3.007
		l-3.519-4.953l-1.492,1.059l2.068,2.91H9.35l-1.822-2.733v-3.676l1.389-1.273c0.184-0.169,0.291-0.406,0.297-0.656l0.041-2.052
		h18.053l0.041,2.052c0.005,0.25,0.112,0.488,0.297,0.656l1.389,1.273V58.454z M9.564,35.345h17.406v13.623H9.291L9.564,35.345z
		 M29.034,29.753l-1.733,1.271c-0.24,0.176-0.38,0.458-0.374,0.756l0.035,1.736H9.6l0.035-1.736c0.006-0.297-0.134-0.58-0.374-0.756
		l-1.733-1.271v-8.186c0-1.083,0.396-2.127,1.114-2.938l6.242-7.051c0.148-0.168,0.23-0.383,0.23-0.606V7.672h6.336v3.299
		c0,0.223,0.082,0.439,0.23,0.606l6.242,7.051c0.718,0.811,1.114,1.854,1.114,2.938V29.753z M17.496,37.231
		c-0.482,0.809-2.889,4.933-2.889,6.623c0,2.026,1.648,3.674,3.674,3.674s3.674-1.649,3.674-3.674c0-1.69-2.407-5.814-2.889-6.623
		C18.737,36.677,17.825,36.677,17.496,37.231z M18.281,45.699c-1.017,0-1.845-0.828-1.845-1.845c0-0.623,0.859-2.498,1.845-4.307
		c0.986,1.809,1.845,3.684,1.845,4.307C20.126,44.871,19.298,45.699,18.281,45.699z M58.301,30.216v-8.649
		c0-1.53-0.559-3.004-1.573-4.15l-6.012-6.792V7.672h0.171c0.505,0,0.915-0.409,0.915-0.915V0.915c0-0.506-0.41-0.915-0.915-0.915
		H40.551c-0.505,0-0.915,0.409-0.915,0.915v5.843c0,0.506,0.41,0.915,0.915,0.915h0.171v2.953l-6.012,6.792
		c-1.014,1.147-1.573,2.621-1.573,4.15v8.649c0,0.291,0.139,0.565,0.374,0.738l1.724,1.264L34.83,52.421l-1.397,1.281
		c-0.189,0.173-0.297,0.418-0.297,0.674v4.355c0,0.18,0.054,0.357,0.154,0.507l2.248,3.371c0.17,0.255,0.455,0.407,0.761,0.407
		h6.274l0.425,0.598C43.169,63.856,43.447,64,43.743,64h3.951c0.296,0,0.574-0.144,0.745-0.385l0.425-0.598h6.274
		c0.306,0,0.591-0.153,0.761-0.407l2.248-3.371c0.1-0.15,0.154-0.327,0.154-0.507v-4.355c0-0.256-0.108-0.501-0.297-0.674
		l-1.397-1.281l-0.404-20.203l1.724-1.264C58.162,30.782,58.301,30.508,58.301,30.216z M41.465,1.829h8.507v4.014h-8.507V1.829z
		 M56.472,58.454l-1.822,2.733h-4.485l2.068-2.91l-1.492-1.059l-3.519,4.953h-3.007l-3.519-4.953l-1.492,1.059l2.068,2.91h-4.485
		l-1.822-2.733v-3.676l1.389-1.273c0.184-0.169,0.291-0.406,0.297-0.656l0.041-2.052h18.053l0.041,2.052
		c0.005,0.25,0.112,0.488,0.297,0.656l1.389,1.273V58.454z M37.001,35.345h17.406v13.623H36.729L37.001,35.345z M56.472,29.753
		l-1.733,1.271c-0.24,0.176-0.38,0.458-0.374,0.756l0.035,1.736H37.038l0.035-1.736c0.006-0.297-0.134-0.58-0.374-0.756
		l-1.733-1.271v-8.186c0-1.083,0.396-2.127,1.114-2.938l6.242-7.051c0.148-0.168,0.23-0.383,0.23-0.606V7.672h6.336v3.299
		c0,0.223,0.082,0.439,0.23,0.606l6.242,7.051c0.718,0.811,1.114,1.854,1.114,2.938V29.753z M44.933,37.231
		c-0.482,0.809-2.889,4.933-2.889,6.623c0,2.026,1.648,3.674,3.674,3.674c2.026,0,3.674-1.649,3.674-3.674
		c0-1.69-2.407-5.814-2.889-6.623C46.175,36.677,45.263,36.677,44.933,37.231z M45.719,45.699c-1.017,0-1.845-0.828-1.845-1.845
		c0-0.623,0.859-2.498,1.845-4.307c0.986,1.809,1.845,3.684,1.845,4.307C47.564,44.871,46.736,45.699,45.719,45.699z"/>
</g>
<g id="Layer_1">
</g>
</svg>
