<?xml version="1.0" encoding="iso-8859-1"?>
<!-- Generator: Adobe Illustrator 24.3.0, SVG Export Plug-In . SVG Version: 6.00 Build 0)  -->
<svg version="1.1" xmlns="http://www.w3.org/2000/svg" xmlns:xlink="http://www.w3.org/1999/xlink" x="0px" y="0px"
	 viewBox="0 0 64 64" style="enable-background:new 0 0 64 64;" xml:space="preserve">
<g id="whistleblower">
	<path style="fill:#231F20;" d="M43.288,44.801c-7.059,0-12.801-5.742-12.801-12.801S36.229,19.2,43.288,19.2
		S56.089,24.942,56.089,32S50.346,44.801,43.288,44.801z M43.288,21.16c-5.977,0-10.84,4.863-10.84,10.84s4.863,10.84,10.84,10.84
		c5.978,0,10.84-4.863,10.84-10.84S49.266,21.16,43.288,21.16z M43.288,52.712c-8.566,0-16.275-5.237-19.25-13.054
		c-0.561-1.41-0.965-2.879-1.204-4.378L0.654,27.44C0.262,27.302,0,26.932,0,26.517V12.268c0-0.542,0.439-0.98,0.98-0.98h22.016
		c0.541,0,0.98,0.438,0.98,0.98v1.51h7.043v-1.51c0-0.542,0.439-0.98,0.98-0.98h10.898c5.658,0,11.189,2.331,15.176,6.394
		c3.924,3.999,6.028,9.228,5.922,14.722C63.782,43.602,54.492,52.712,43.288,52.712z M26.021,39.345
		c2.79,6.847,9.652,11.406,17.266,11.406c10.144,0,18.555-8.247,18.748-18.385c0.095-4.963-1.809-9.69-5.361-13.311
		c-3.62-3.69-8.642-5.806-13.776-5.806H32.98v1.51c0,0.542-0.439,0.98-0.98,0.98h-9.004c-0.541,0-0.98-0.438-0.98-0.98v-1.51H1.96
		v12.575l22.093,7.808c0.351,0.123,0.601,0.436,0.647,0.804l0.047,0.383c0.201,1.345,0.556,2.683,1.056,3.971l0.003-0.001
		c0.02,0.053,0.039,0.106,0.059,0.16c0.053,0.132,0.107,0.263,0.163,0.394L26.021,39.345z"/>
</g>
<g id="Layer_1">
</g>
</svg>
