<?xml version="1.0" encoding="iso-8859-1"?>
<!-- Generator: Adobe Illustrator 24.3.0, SVG Export Plug-In . SVG Version: 6.00 Build 0)  -->
<svg version="1.1" xmlns="http://www.w3.org/2000/svg" xmlns:xlink="http://www.w3.org/1999/xlink" x="0px" y="0px"
	 viewBox="0 0 64 64" style="enable-background:new 0 0 64 64;" xml:space="preserve">
<g id="wolf-dog">
	<path style="fill:#231F20;" d="M55.399,0.195c-0.166-0.158-0.396-0.226-0.623-0.181c-0.224,0.044-0.414,0.193-0.509,0.402
		c-0.42,0.923-1.821,3.5-3.233,4.316c-1.758,1.016-3.065,1.221-3.075,1.222c-0.256,0.037-0.473,0.211-0.563,0.453
		c-0.581,1.554-2.599,5.698-4.93,6.208c-0.151,0.032-0.286,0.113-0.386,0.231c-0.541,0.631-0.659,1.183-0.351,1.638
		c0.174,0.257,0.593,0.874,3.414,0.148c-0.827,1.397-1.854,3.357-1.922,4.581c-0.133,2.393-0.689,4.892-3.815,5.283
		c-1.36,0.17-2.945,0.311-4.622,0.461c-3.289,0.294-6.69,0.597-8.983,1.167c-4.102,1.018-8.571,2.759-9.683,10.564
		c-0.864,6.064-4.921,10.219-10.588,10.843c-0.241,0.027-0.451,0.174-0.558,0.392s-0.095,0.475,0.032,0.682
		c1.687,2.754,3.656,4.116,5.886,4.1c2.889-0.044,5.479-2.533,7.129-4.586c-0.334,1.474-0.734,2.674-1.081,2.935
		c-0.241,0.18-0.341,0.494-0.25,0.781c0.678,2.132,1.535,8.564,1.544,8.628c0.021,0.16,0.096,0.307,0.212,0.418l2.519,2.419
		c0.132,0.126,0.307,0.197,0.49,0.197h3.564c0.237,0,0.458-0.119,0.59-0.316c0.131-0.198,0.155-0.447,0.063-0.666l-1.151-2.741
		c-0.11-0.263-0.367-0.434-0.653-0.434h-1.067l-0.538-5.164l4.732,9.434C27.111,63.849,27.355,64,27.623,64h4.916
		c0.357,0,0.658-0.266,0.702-0.62c0.307-2.459-2.954-4.223-3.611-4.551c-1.017-0.508-2.528-4.527-2.94-7.819
		c-0.184-1.474,1.674-3.571,3.167-5.256c1.494-1.687,2.673-3.028,2.576-4.223c1.378,0.761,3.706,1.82,5.822,1.691
		c1.721-0.111,3.167-0.401,4.356-0.746l2.394,15.684c0.021,0.14,0.084,0.271,0.181,0.375l1.855,1.995
		c0.134,0.144,0.321,0.226,0.518,0.226h1.065l0.027,0.173c0.021,0.135,0.081,0.262,0.172,0.364l1.764,1.969
		c0.135,0.149,0.326,0.235,0.527,0.235h5.107c0.361,0,0.664-0.271,0.704-0.63c0.141-1.267-1.627-4.041-4.359-4.483
		c-1.29-1.034,0.201-14.866,2.813-22.475c2.309-6.723,0.546-13.072-0.301-16.123l-0.088-0.319
		c-0.661-2.398,2.216-9.151,3.829-12.066C60.185,4.93,56.21,0.965,55.399,0.195z M47.867,59.34l-1.496-1.609L43.973,42.02
		c0.67-0.258,1.223-0.518,1.634-0.74l2.798,18.06H47.867z M57.58,6.715c-0.05,0.091-4.991,9.371-3.955,13.128l0.088,0.321
		c0.809,2.913,2.493,8.977,0.327,15.285c-1.969,5.738-4.536,20.581-2.75,23.577c0.31,0.52,0.707,0.685,0.986,0.731
		c1.563,0.261,2.62,1.51,3.04,2.323h-3.885l-1.413-1.576l-3.175-20.496c-0.038-0.246-0.205-0.453-0.435-0.547
		c-0.232-0.093-0.496-0.057-0.695,0.094c-0.025,0.019-2.596,1.934-7.549,2.253c-2.233,0.152-4.977-1.441-5.853-1.992
		c-0.036-1.613,0.123-3.236,0.125-3.257l-1.409-0.141c-0.013,0.127-0.308,3.131,0.004,5.21c0.085,0.569-1.255,2.082-2.234,3.186
		c-1.77,1.997-3.776,4.261-3.512,6.37c0.394,3.155,1.903,8.006,3.711,8.91c1.222,0.611,2.412,1.586,2.751,2.489H28.06l-6.16-12.282
		c0.391-1.737,1.283-6.31,0.215-7.698c-0.579-0.753-0.618-3.822-0.46-5.76l-1.411-0.115c-0.071,0.87-0.369,5.284,0.749,6.737
		c0.48,0.624,0.114,4.001-0.529,6.765c-0.018,0.077-0.021,0.156-0.013,0.233l-0.002,0l1.006,9.655
		c0.038,0.361,0.341,0.635,0.704,0.635h1.235l0.556,1.325h-2.215l-2.136-2.05c-0.158-1.159-0.831-5.969-1.448-8.227
		c1.101-1.479,1.657-5.372,1.812-6.629c0.041-0.335-0.16-0.652-0.48-0.758c-0.319-0.105-0.67,0.028-0.837,0.321
		c-0.037,0.065-3.752,6.49-7.78,6.551c-1.454,0.056-2.806-0.825-4.052-2.52c5.745-1.096,9.802-5.555,10.704-11.882
		c0.988-6.934,4.801-8.441,8.622-9.389c2.187-0.543,5.532-0.842,8.768-1.131c1.69-0.151,3.287-0.293,4.672-0.467
		c4.72-0.59,4.962-4.963,5.053-6.609c0.066-1.179,1.693-3.992,2.703-5.489c0.17-0.252,0.16-0.584-0.024-0.825
		c-0.185-0.242-0.505-0.337-0.79-0.241c-0.805,0.273-1.644,0.503-2.333,0.652c2.328-1.49,3.912-4.968,4.387-6.119
		c0.59-0.142,1.754-0.496,3.166-1.313C53.208,5.11,54.46,3.089,55.1,1.904C56.611,3.519,58.122,5.735,57.58,6.715z"/>
</g>
<g id="Layer_1">
</g>
</svg>
