<?xml version="1.0" encoding="iso-8859-1"?>
<!-- Generator: Adobe Illustrator 24.3.0, SVG Export Plug-In . SVG Version: 6.00 Build 0)  -->
<svg version="1.1" xmlns="http://www.w3.org/2000/svg" xmlns:xlink="http://www.w3.org/1999/xlink" x="0px" y="0px"
	 viewBox="0 0 64 64" style="enable-background:new 0 0 64 64;" xml:space="preserve">
<g id="bow">
	<path style="fill:#FFFFFF;" d="M56.862,31.201l-8.509-2.797c-0.28-0.091-0.587-0.005-0.776,0.22l-2.14,2.541h-2.25v-0.988
		c2.262-2.042,3.406-4.522,3.4-7.376c-0.018-8.03-9.137-16.449-10.829-17.943V3.89c0-1.351,1.098-2.449,2.449-2.449h0.549V0h-0.549
		c-2.144,0-3.889,1.745-3.889,3.89v1.118L20.589,31.165h-2.284l-2.161-2.873c-0.136-0.181-0.349-0.288-0.575-0.288H7.373
		c-0.273,0-0.523,0.154-0.644,0.399c-0.122,0.244-0.096,0.536,0.069,0.754l1.51,2.008H6.643v1.44h1.671l-1.516,2.016
		c-0.165,0.218-0.191,0.51-0.069,0.754C6.85,35.62,7.1,35.774,7.373,35.774h8.196c0.226,0,0.44-0.106,0.575-0.288l2.167-2.881h2.157
		l13.848,26.387v1.117c0,2.145,1.745,3.89,3.889,3.89h0.463v-1.44h-0.463c-1.35,0-2.449-1.098-2.449-2.449v-0.967
		c1.693-1.494,10.811-9.914,10.829-17.944c0.006-2.854-1.137-5.333-3.4-7.376v-1.218h2.25l2.14,2.541
		c0.139,0.165,0.342,0.256,0.551,0.256c0.075,0,0.151-0.012,0.225-0.036l8.509-2.797c0.295-0.097,0.495-0.373,0.495-0.684
		C57.357,31.575,57.157,31.298,56.862,31.201z M35.244,6.34c2.324,2.147,9.886,9.653,9.901,16.464
		c0.006,2.517-1.053,4.704-3.148,6.501c-0.159,0.136-0.251,0.336-0.251,0.546v1.314H22.216L35.244,6.34z M8.815,29.444h6.395
		l1.294,1.721h-6.395L8.815,29.444z M15.21,34.334H8.815l1.299-1.729h6.395L15.21,34.334z M41.997,34.696
		c2.094,1.796,3.153,3.983,3.148,6.498c-0.014,6.805-7.577,14.318-9.902,16.467L22.095,32.605h19.651v1.544
		C41.746,34.359,41.838,34.559,41.997,34.696z M48.365,33.846l-1.651-1.961l1.651-1.961l5.966,1.961L48.365,33.846z"/>
</g>
<g id="Layer_1">
</g>
</svg>
